<svg width="6" height="11" viewBox="0 0 6 11" fill="none" xmlns="http://www.w3.org/2000/svg">
<path d="M1.0748 0.793554L5.2873 4.99356C5.3373 5.04356 5.3728 5.09772 5.3938 5.15605C5.4148 5.21439 5.42513 5.27689 5.4248 5.34355C5.4248 5.41022 5.4143 5.47272 5.3933 5.53105C5.3723 5.58939 5.33696 5.64355 5.2873 5.69355L1.0748 9.90605C0.95813 10.0227 0.812297 10.0811 0.637297 10.0811C0.462296 10.0811 0.312297 10.0186 0.187297 9.89355C0.0622969 9.76855 -0.000203133 9.62272 -0.000203133 9.45605C-0.000203133 9.28939 0.0622969 9.14355 0.187297 9.01855L3.8623 5.34355L0.187297 1.66855C0.0706301 1.55189 0.0122967 1.40805 0.0122967 1.23705C0.0122967 1.06606 0.0747967 0.918221 0.199797 0.793554C0.324797 0.668554 0.47063 0.606054 0.637297 0.606054C0.803963 0.606054 0.949797 0.668554 1.0748 0.793554Z" fill="#959595"/>
</svg>
