<svg width="26" height="22" viewBox="0 0 26 22" fill="none" xmlns="http://www.w3.org/2000/svg">
<path d="M1.33335 2.14841L2.82669 0.666748L22.3334 20.1734L20.8517 21.6667L17.2584 18.0734C15.9167 18.5167 14.4934 18.7501 13 18.7501C7.16669 18.7501 2.18502 15.1217 0.166687 10.0001C0.971687 7.94675 2.25502 6.13841 3.88835 4.70341L1.33335 2.14841ZM13 6.50008C13.9283 6.50008 14.8185 6.86883 15.4749 7.52521C16.1313 8.18158 16.5 9.07182 16.5 10.0001C16.5006 10.3974 16.4335 10.7919 16.3017 11.1667L11.8334 6.69841C12.2082 6.56656 12.6027 6.49949 13 6.50008ZM13 1.25008C18.8334 1.25008 23.815 4.87841 25.8334 10.0001C24.8812 12.4188 23.2631 14.5182 21.1667 16.0551L19.51 14.3867C21.1234 13.2707 22.4246 11.7606 23.29 10.0001C22.3468 8.07501 20.8825 6.45315 19.0635 5.31884C17.2445 4.18453 15.1437 3.58327 13 3.58341C11.7284 3.58341 10.48 3.79341 9.31335 4.16675L7.51669 2.38175C9.19669 1.65841 11.0517 1.25008 13 1.25008ZM2.71002 10.0001C3.6532 11.9252 5.11752 13.547 6.93654 14.6813C8.75556 15.8156 10.8563 16.4169 13 16.4167C13.805 16.4167 14.5984 16.3351 15.3334 16.1717L12.6734 13.5001C11.8615 13.4131 11.104 13.0508 10.5267 12.4734C9.94933 11.8961 9.58704 11.1386 9.50002 10.3267L5.53335 6.34841C4.37835 7.34008 3.41002 8.57675 2.71002 10.0001Z" fill="#959595"/>
</svg>
