<svg width="20" height="20" viewBox="0 0 20 20" fill="none" xmlns="http://www.w3.org/2000/svg">
<path fillRule="evenodd" clip-rule="evenodd" d="M3.55198 0.120629C3.78637 0.0194408 4.04304 -0.0190846 4.29681 0.00883313C4.55058 0.0367509 4.79273 0.130153 4.9995 0.279873C6.26469 1.20229 7.22236 2.49827 8.03777 3.6891L8.67688 4.62854C8.86128 4.89803 8.95316 5.2201 8.93871 5.54629C8.92425 5.87249 8.80425 6.18517 8.59674 6.43731L8.49957 6.54447L7.14121 7.90255L7.28446 8.20702C7.63507 8.91711 8.24012 9.93968 9.15071 10.8511C9.77947 11.4702 10.4883 12.0024 11.2584 12.4335L11.626 12.6308L11.9536 12.793L12.0998 12.8601L13.4572 11.5021C13.7066 11.253 14.0356 11.0994 14.3868 11.0681C14.7379 11.0368 15.0889 11.1298 15.3785 11.3308L16.3943 12.0349C17.5483 12.8461 18.7534 13.7705 19.69 14.9704C19.8519 15.1786 19.9549 15.4265 19.9882 15.6881C20.0215 15.9498 19.9839 16.2155 19.8793 16.4577C19.0409 18.4137 16.9192 20.0792 14.7124 19.9971L14.4118 19.9811L14.1784 19.961L13.92 19.931L13.6385 19.8929L13.333 19.8418L13.0064 19.7778L12.6598 19.7006L12.2932 19.6065L11.9075 19.4963L11.5048 19.3661C9.65558 18.7392 7.30851 17.5073 4.90032 15.0996C2.49314 12.6929 1.261 10.3463 0.633914 8.49747L0.503688 8.09485L0.393496 7.70926L0.299333 7.3427L0.221197 6.99616C0.198628 6.88763 0.17759 6.77879 0.158087 6.66966L0.108 6.3642L0.0679308 6.08277L0.0388803 5.82437L0.0188455 5.59101L0.00281767 5.29055C-0.0783233 3.09118 1.6046 0.954907 3.55198 0.120629ZM4.06988 2.09065C2.99602 2.65151 1.95621 3.93347 2.00329 5.21644L2.02333 5.54494L2.04537 5.75026L2.07442 5.98061L2.11449 6.234L2.16557 6.51142L2.23069 6.80988L2.31083 7.13037L2.40699 7.46989L2.52119 7.82844C2.56326 7.95063 2.60734 8.07582 2.65542 8.20402L2.80969 8.59662L2.986 9.00424C3.61509 10.3884 4.64087 12.0088 6.31678 13.6834C7.99169 15.358 9.61251 16.3846 10.9969 17.0135L11.4046 17.1898L11.7973 17.344C11.9255 17.3921 12.0507 17.4362 12.173 17.4782L12.5316 17.5924L12.8722 17.6885L13.1917 17.7687L13.4902 17.8338L13.7677 17.8848L14.0222 17.9249L14.2526 17.955L14.4569 17.975L14.7855 17.995C16.0517 18.0421 17.3439 17.0085 17.9029 15.9489C17.1897 15.1126 16.3041 14.4266 15.3274 13.7355L14.5781 13.2137L14.3878 13.413L13.9811 13.8567L13.7657 14.083C13.1787 14.6809 12.4935 15.1887 11.6721 14.8572L11.4457 14.7621L11.1692 14.6379L11.0149 14.5648L10.6764 14.3955L10.3047 14.1952C9.3642 13.6719 8.49914 13.0233 7.73324 12.2672C6.97701 11.5015 6.3283 10.6366 5.80489 9.6963L5.60455 9.32574L5.43425 8.98621L5.23791 8.55555L5.14274 8.3272C4.8312 7.55702 5.25995 6.90703 5.8079 6.34417L6.03229 6.12383L6.59026 5.61004L6.79061 5.41975L6.31678 4.72569C5.61256 3.70412 4.92437 2.78371 4.06988 2.09065Z" fill="#FFFFFF"/>
</svg>
