<svg width="26" height="18" viewBox="0 0 26 18" fill="none" xmlns="http://www.w3.org/2000/svg">
<path d="M13 5.5C13.9282 5.5 14.8185 5.86875 15.4749 6.52513C16.1312 7.1815 16.5 8.07174 16.5 9C16.5 9.92826 16.1312 10.8185 15.4749 11.4749C14.8185 12.1312 13.9282 12.5 13 12.5C12.0717 12.5 11.1815 12.1312 10.5251 11.4749C9.86874 10.8185 9.49999 9.92826 9.49999 9C9.49999 8.07174 9.86874 7.1815 10.5251 6.52513C11.1815 5.86875 12.0717 5.5 13 5.5ZM13 0.25C18.8333 0.25 23.815 3.87833 25.8333 9C23.815 14.1217 18.8333 17.75 13 17.75C7.16666 17.75 2.18499 14.1217 0.166656 9C2.18499 3.87833 7.16666 0.25 13 0.25ZM2.70999 9C3.65295 10.9254 5.11718 12.5475 6.93621 13.6821C8.75525 14.8167 10.8561 15.4182 13 15.4182C15.1439 15.4182 17.2447 14.8167 19.0638 13.6821C20.8828 12.5475 22.347 10.9254 23.29 9C22.347 7.07464 20.8828 5.45246 19.0638 4.31787C17.2447 3.18328 15.1439 2.58179 13 2.58179C10.8561 2.58179 8.75525 3.18328 6.93621 4.31787C5.11718 5.45246 3.65295 7.07464 2.70999 9Z" fill="#959595"/>
</svg>
