<svg width="260" height="98" viewBox="0 0 454 172" fill="none" xmlns="http://www.w3.org/2000/svg">
<g filter="url(#filter0_d_3261_19055)">
<rect x="16" y="12" width="422" height="140" rx="25" fill="#3598EA" shape-rendering="crispEdges"/>
<ellipse cx="101.505" cy="62.0001" rx="13.3333" ry="13.3333" fill="white"/>
<ellipse cx="101.505" cy="98.67" rx="23.3333" ry="13.3333" fill="white"/>
<path d="M141.498 98.6682C141.498 104.191 134.713 108.668 126.429 108.668C128.87 106 130.548 102.652 130.548 98.6728C130.548 94.6893 128.866 91.3375 126.421 88.6683C134.705 88.6683 141.498 93.1453 141.498 98.6682Z" fill="white"/>
<path d="M131.498 62.0024C131.498 67.5253 127.021 72.0024 121.498 72.0024C120.294 72.0024 119.14 71.7896 118.07 71.3994C119.647 68.6257 120.548 65.4174 120.548 61.9987C120.548 58.5826 119.649 55.3765 118.074 52.6042C119.142 52.2149 120.295 52.0024 121.498 52.0024C127.021 52.0024 131.498 56.4796 131.498 62.0024Z" fill="white"/>
<path d="M188.024 72.344V92H183.236V72.344H188.024ZM185.616 70.552C185.037 70.552 184.552 70.356 184.16 69.964C183.768 69.572 183.572 69.0867 183.572 68.508C183.572 67.9293 183.768 67.444 184.16 67.052C184.552 66.6413 185.037 66.436 185.616 66.436C186.213 66.436 186.708 66.632 187.1 67.024C187.492 67.416 187.688 67.9107 187.688 68.508C187.688 69.0867 187.483 69.572 187.072 69.964C186.68 70.356 186.195 70.552 185.616 70.552ZM190.542 84.188C190.542 82.564 190.868 81.1453 191.522 79.932C192.194 78.7187 193.118 77.7853 194.294 77.132C195.488 76.4787 196.851 76.152 198.382 76.152C200.342 76.152 201.975 76.6653 203.282 77.692C204.607 78.7187 205.475 80.1653 205.886 82.032H200.79C200.36 80.8373 199.53 80.24 198.298 80.24C197.42 80.24 196.72 80.5853 196.198 81.276C195.675 81.948 195.414 82.9187 195.414 84.188C195.414 85.4573 195.675 86.4373 196.198 87.128C196.72 87.8 197.42 88.136 198.298 88.136C199.53 88.136 200.36 87.5387 200.79 86.344H205.886C205.475 88.1733 204.607 89.6107 203.282 90.656C201.956 91.7013 200.323 92.224 198.382 92.224C196.851 92.224 195.488 91.8973 194.294 91.244C193.118 90.5907 192.194 89.6573 191.522 88.444C190.868 87.2307 190.542 85.812 190.542 84.188ZM213.235 78.98C213.795 78.1213 214.495 77.4493 215.335 76.964C216.175 76.46 217.108 76.208 218.135 76.208V81.276H216.819C215.624 81.276 214.728 81.5373 214.131 82.06C213.534 82.564 213.235 83.46 213.235 84.748V92H208.447V76.376H213.235V78.98ZM219.472 84.16C219.472 82.5547 219.77 81.1453 220.368 79.932C220.984 78.7187 221.814 77.7853 222.86 77.132C223.905 76.4787 225.072 76.152 226.36 76.152C227.461 76.152 228.422 76.376 229.244 76.824C230.084 77.272 230.728 77.86 231.176 78.588V76.376H235.964V92H231.176V89.788C230.709 90.516 230.056 91.104 229.216 91.552C228.394 92 227.433 92.224 226.332 92.224C225.062 92.224 223.905 91.8973 222.86 91.244C221.814 90.572 220.984 89.6293 220.368 88.416C219.77 87.184 219.472 85.7653 219.472 84.16ZM231.176 84.188C231.176 82.9933 230.84 82.0507 230.168 81.36C229.514 80.6693 228.712 80.324 227.76 80.324C226.808 80.324 225.996 80.6693 225.324 81.36C224.67 82.032 224.344 82.9653 224.344 84.16C224.344 85.3547 224.67 86.3067 225.324 87.016C225.996 87.7067 226.808 88.052 227.76 88.052C228.712 88.052 229.514 87.7067 230.168 87.016C230.84 86.3253 231.176 85.3827 231.176 84.188ZM246.231 88.136C247.463 88.136 248.294 87.5387 248.723 86.344H253.819C253.465 87.9307 252.755 89.228 251.691 90.236C250.627 91.244 249.302 91.8693 247.715 92.112V93.148C248.686 93.148 249.535 93.4093 250.263 93.932C250.991 94.4733 251.355 95.276 251.355 96.34C251.355 97.404 250.973 98.2067 250.207 98.748C249.442 99.308 248.527 99.588 247.463 99.588H243.151V96.956H246.819C247.193 96.956 247.473 96.9 247.659 96.788C247.846 96.676 247.939 96.4893 247.939 96.228C247.939 95.9667 247.846 95.78 247.659 95.668C247.473 95.5747 247.193 95.528 246.819 95.528H244.831V92.112C242.909 91.8133 241.369 90.964 240.211 89.564C239.054 88.1453 238.475 86.3533 238.475 84.188C238.475 82.564 238.802 81.1453 239.455 79.932C240.127 78.7187 241.051 77.7853 242.227 77.132C243.422 76.4787 244.785 76.152 246.315 76.152C248.275 76.152 249.909 76.6653 251.215 77.692C252.541 78.7187 253.409 80.1653 253.819 82.032H248.723C248.294 80.8373 247.463 80.24 246.231 80.24C245.354 80.24 244.654 80.5853 244.131 81.276C243.609 81.948 243.347 82.9187 243.347 84.188C243.347 85.4573 243.609 86.4373 244.131 87.128C244.654 87.8 245.354 88.136 246.231 88.136ZM261.533 76.376V92H256.745V76.376H261.533ZM270.165 71.28V92H265.377V71.28H270.165ZM272.682 84.16C272.682 82.5547 272.981 81.1453 273.578 79.932C274.194 78.7187 275.025 77.7853 276.07 77.132C277.116 76.4787 278.282 76.152 279.57 76.152C280.672 76.152 281.633 76.376 282.454 76.824C283.294 77.272 283.938 77.86 284.386 78.588V76.376H289.174V92H284.386V89.788C283.92 90.516 283.266 91.104 282.426 91.552C281.605 92 280.644 92.224 279.542 92.224C278.273 92.224 277.116 91.8973 276.07 91.244C275.025 90.572 274.194 89.6293 273.578 88.416C272.981 87.184 272.682 85.7653 272.682 84.16ZM284.386 84.188C284.386 82.9933 284.05 82.0507 283.378 81.36C282.725 80.6693 281.922 80.324 280.97 80.324C280.018 80.324 279.206 80.6693 278.534 81.36C277.881 82.032 277.554 82.9653 277.554 84.16C277.554 85.3547 277.881 86.3067 278.534 87.016C279.206 87.7067 280.018 88.052 280.97 88.052C281.922 88.052 282.725 87.7067 283.378 87.016C284.05 86.3253 284.386 85.3827 284.386 84.188ZM297.426 78.98C297.986 78.1213 298.686 77.4493 299.526 76.964C300.366 76.46 301.3 76.208 302.326 76.208V81.276H301.01C299.816 81.276 298.92 81.5373 298.322 82.06C297.725 82.564 297.426 83.46 297.426 84.748V92H292.638V76.376H297.426V78.98ZM325.977 76.376V92H321.189V89.872C320.703 90.5627 320.041 91.1227 319.201 91.552C318.379 91.9627 317.465 92.168 316.457 92.168C315.262 92.168 314.207 91.9067 313.293 91.384C312.378 90.8427 311.669 90.068 311.165 89.06C310.661 88.052 310.409 86.8667 310.409 85.504V76.376H315.169V84.86C315.169 85.9053 315.439 86.7173 315.981 87.296C316.522 87.8747 317.25 88.164 318.165 88.164C319.098 88.164 319.835 87.8747 320.377 87.296C320.918 86.7173 321.189 85.9053 321.189 84.86V76.376H325.977ZM315.449 74.64C314.87 74.64 314.385 74.444 313.993 74.052C313.601 73.66 313.405 73.1747 313.405 72.596C313.405 72.0173 313.601 71.532 313.993 71.14C314.385 70.7293 314.87 70.524 315.449 70.524C316.046 70.524 316.541 70.72 316.933 71.112C317.325 71.504 317.521 71.9987 317.521 72.596C317.521 73.1747 317.315 73.66 316.905 74.052C316.513 74.444 316.027 74.64 315.449 74.64ZM321.049 74.64C320.47 74.64 319.985 74.444 319.593 74.052C319.201 73.66 319.005 73.1747 319.005 72.596C319.005 72.0173 319.201 71.532 319.593 71.14C319.985 70.7293 320.47 70.524 321.049 70.524C321.646 70.524 322.141 70.72 322.533 71.112C322.925 71.504 323.121 71.9987 323.121 72.596C323.121 73.1747 322.915 73.66 322.505 74.052C322.113 74.444 321.627 74.64 321.049 74.64ZM336.22 88.136C337.452 88.136 338.282 87.5387 338.712 86.344H343.808C343.453 87.9307 342.744 89.228 341.68 90.236C340.616 91.244 339.29 91.8693 337.704 92.112V93.148C338.674 93.148 339.524 93.4093 340.252 93.932C340.98 94.4733 341.344 95.276 341.344 96.34C341.344 97.404 340.961 98.2067 340.196 98.748C339.43 99.308 338.516 99.588 337.452 99.588H333.14V96.956H336.808C337.181 96.956 337.461 96.9 337.648 96.788C337.834 96.676 337.928 96.4893 337.928 96.228C337.928 95.9667 337.834 95.78 337.648 95.668C337.461 95.5747 337.181 95.528 336.808 95.528H334.82V92.112C332.897 91.8133 331.357 90.964 330.2 89.564C329.042 88.1453 328.464 86.3533 328.464 84.188C328.464 82.564 328.79 81.1453 329.444 79.932C330.116 78.7187 331.04 77.7853 332.216 77.132C333.41 76.4787 334.773 76.152 336.304 76.152C338.264 76.152 339.897 76.6653 341.204 77.692C342.529 78.7187 343.397 80.1653 343.808 82.032H338.712C338.282 80.8373 337.452 80.24 336.22 80.24C335.342 80.24 334.642 80.5853 334.12 81.276C333.597 81.948 333.336 82.9187 333.336 84.188C333.336 85.4573 333.597 86.4373 334.12 87.128C334.642 87.8 335.342 88.136 336.22 88.136ZM361.797 76.376V92H357.009V89.872C356.523 90.5627 355.861 91.1227 355.021 91.552C354.199 91.9627 353.285 92.168 352.277 92.168C351.082 92.168 350.027 91.9067 349.113 91.384C348.198 90.8427 347.489 90.068 346.985 89.06C346.481 88.052 346.229 86.8667 346.229 85.504V76.376H350.989V84.86C350.989 85.9053 351.259 86.7173 351.801 87.296C352.342 87.8747 353.07 88.164 353.985 88.164C354.918 88.164 355.655 87.8747 356.197 87.296C356.738 86.7173 357.009 85.9053 357.009 84.86V76.376H361.797ZM351.269 74.64C350.69 74.64 350.205 74.444 349.813 74.052C349.421 73.66 349.225 73.1747 349.225 72.596C349.225 72.0173 349.421 71.532 349.813 71.14C350.205 70.7293 350.69 70.524 351.269 70.524C351.866 70.524 352.361 70.72 352.753 71.112C353.145 71.504 353.341 71.9987 353.341 72.596C353.341 73.1747 353.135 73.66 352.725 74.052C352.333 74.444 351.847 74.64 351.269 74.64ZM356.869 74.64C356.29 74.64 355.805 74.444 355.413 74.052C355.021 73.66 354.825 73.1747 354.825 72.596C354.825 72.0173 355.021 71.532 355.413 71.14C355.805 70.7293 356.29 70.524 356.869 70.524C357.466 70.524 357.961 70.72 358.353 71.112C358.745 71.504 358.941 71.9987 358.941 72.596C358.941 73.1747 358.735 73.66 358.325 74.052C357.933 74.444 357.447 74.64 356.869 74.64ZM374.756 76.208C376.585 76.208 378.041 76.8053 379.124 78C380.225 79.176 380.776 80.8 380.776 82.872V92H376.016V83.516C376.016 82.4707 375.745 81.6587 375.204 81.08C374.663 80.5013 373.935 80.212 373.02 80.212C372.105 80.212 371.377 80.5013 370.836 81.08C370.295 81.6587 370.024 82.4707 370.024 83.516V92H365.236V76.376H370.024V78.448C370.509 77.7573 371.163 77.216 371.984 76.824C372.805 76.4133 373.729 76.208 374.756 76.208Z" fill="white"/>
</g>
<defs>
<filter id="filter0_d_3261_19055" x="0" y="0" width="454" height="172" filterUnits="userSpaceOnUse" color-interpolation-filters="sRGB">
<feFlood flood-opacity="0" result="BackgroundImageFix"/>
<feColorMatrix in="SourceAlpha" type="matrix" values="0 0 0 0 0 0 0 0 0 0 0 0 0 0 0 0 0 0 127 0" result="hardAlpha"/>
<feOffset dy="4"/>
<feGaussianBlur stdDeviation="8"/>
<feComposite in2="hardAlpha" operator="out"/>
<feColorMatrix type="matrix" values="0 0 0 0 0.12549 0 0 0 0 0.12549 0 0 0 0 0.12549 0 0 0 0.15 0"/>
<feBlend mode="normal" in2="BackgroundImageFix" result="effect1_dropShadow_3261_19055"/>
<feBlend mode="normal" in="SourceGraphic" in2="effect1_dropShadow_3261_19055" result="shape"/>
</filter>
</defs>
</svg>
