<svg width="260" height="98" viewBox="0 0 454 172" fill="none" xmlns="http://www.w3.org/2000/svg">
<g filter="url(#filter0_d_3261_19061)">
<rect x="16" y="12" width="422" height="140" rx="25" fill="#3598EA" shape-rendering="crispEdges"/>
<circle cx="117.501" cy="62.0001" r="13.3333" fill="white"/>
<ellipse cx="117.501" cy="98.6666" rx="23.3333" ry="13.3333" fill="white"/>
<path d="M211.496 72.344V92H206.708V80.212L202.312 92H198.448L194.024 80.184V92H189.236V72.344H194.892L200.408 85.952L205.868 72.344H211.496ZM230.367 76.376V92H225.579V89.872C225.094 90.5627 224.431 91.1227 223.591 91.552C222.77 91.9627 221.855 92.168 220.847 92.168C219.652 92.168 218.598 91.9067 217.683 91.384C216.768 90.8427 216.059 90.068 215.555 89.06C215.051 88.052 214.799 86.8667 214.799 85.504V76.376H219.559V84.86C219.559 85.9053 219.83 86.7173 220.371 87.296C220.912 87.8747 221.64 88.164 222.555 88.164C223.488 88.164 224.226 87.8747 224.767 87.296C225.308 86.7173 225.579 85.9053 225.579 84.86V76.376H230.367ZM219.839 74.64C219.26 74.64 218.775 74.444 218.383 74.052C217.991 73.66 217.795 73.1747 217.795 72.596C217.795 72.0173 217.991 71.532 218.383 71.14C218.775 70.7293 219.26 70.524 219.839 70.524C220.436 70.524 220.931 70.72 221.323 71.112C221.715 71.504 221.911 71.9987 221.911 72.596C221.911 73.1747 221.706 73.66 221.295 74.052C220.903 74.444 220.418 74.64 219.839 74.64ZM225.439 74.64C224.86 74.64 224.375 74.444 223.983 74.052C223.591 73.66 223.395 73.1747 223.395 72.596C223.395 72.0173 223.591 71.532 223.983 71.14C224.375 70.7293 224.86 70.524 225.439 70.524C226.036 70.524 226.531 70.72 226.923 71.112C227.315 71.504 227.511 71.9987 227.511 72.596C227.511 73.1747 227.306 73.66 226.895 74.052C226.503 74.444 226.018 74.64 225.439 74.64ZM241.702 93.148C242.673 93.148 243.522 93.4093 244.25 93.932C244.978 94.4733 245.342 95.276 245.342 96.34C245.342 97.404 244.96 98.2067 244.194 98.748C243.429 99.308 242.514 99.588 241.45 99.588H237.138V96.956H240.806C241.18 96.956 241.46 96.9 241.646 96.788C241.833 96.676 241.926 96.4893 241.926 96.228C241.926 95.9667 241.833 95.78 241.646 95.668C241.46 95.5747 241.18 95.528 240.806 95.528H238.818V92.14C237.12 91.916 235.738 91.328 234.674 90.376C233.629 89.4053 233.06 88.2387 232.966 86.876H237.698C237.754 87.4173 238.006 87.856 238.454 88.192C238.902 88.528 239.453 88.696 240.106 88.696C240.704 88.696 241.161 88.584 241.478 88.36C241.814 88.1173 241.982 87.8093 241.982 87.436C241.982 86.988 241.749 86.6613 241.282 86.456C240.816 86.232 240.06 85.9893 239.014 85.728C237.894 85.4667 236.961 85.196 236.214 84.916C235.468 84.6173 234.824 84.16 234.282 83.544C233.741 82.9093 233.47 82.06 233.47 80.996C233.47 80.1 233.713 79.288 234.198 78.56C234.702 77.8133 235.43 77.2253 236.382 76.796C237.353 76.3667 238.501 76.152 239.826 76.152C241.786 76.152 243.326 76.6373 244.446 77.608C245.585 78.5787 246.238 79.8667 246.406 81.472H241.982C241.908 80.9307 241.665 80.5013 241.254 80.184C240.862 79.8667 240.34 79.708 239.686 79.708C239.126 79.708 238.697 79.82 238.398 80.044C238.1 80.2493 237.95 80.5387 237.95 80.912C237.95 81.36 238.184 81.696 238.65 81.92C239.136 82.144 239.882 82.368 240.89 82.592C242.048 82.8907 242.99 83.1893 243.718 83.488C244.446 83.768 245.081 84.2347 245.622 84.888C246.182 85.5227 246.472 86.3813 246.49 87.464C246.49 88.6587 246.061 89.676 245.202 90.516C244.362 91.3373 243.196 91.8693 241.702 92.112V93.148ZM258.128 87.94V92H255.692C253.956 92 252.602 91.58 251.632 90.74C250.661 89.8813 250.176 88.4907 250.176 86.568V80.352H248.272V76.376H250.176V72.568H254.964V76.376H258.1V80.352H254.964V86.624C254.964 87.0907 255.076 87.4267 255.3 87.632C255.524 87.8373 255.897 87.94 256.42 87.94H258.128ZM267.627 76.152C269.157 76.152 270.52 76.4787 271.715 77.132C272.909 77.7853 273.843 78.7187 274.515 79.932C275.187 81.1453 275.523 82.564 275.523 84.188C275.523 85.812 275.187 87.2307 274.515 88.444C273.861 89.6573 272.937 90.5907 271.743 91.244C270.548 91.8973 269.176 92.224 267.627 92.224C266.115 92.224 264.771 91.9067 263.595 91.272C262.419 90.6373 261.495 89.732 260.823 88.556C260.169 87.38 259.843 86.008 259.843 84.44C259.843 83.9733 259.871 83.5067 259.927 83.04H270.763C270.688 82.0693 270.371 81.332 269.811 80.828C269.269 80.3053 268.597 80.044 267.795 80.044C266.6 80.044 265.769 80.548 265.303 81.556H260.207C260.468 80.5293 260.935 79.6053 261.607 78.784C262.297 77.9627 263.156 77.3187 264.183 76.852C265.209 76.3853 266.357 76.152 267.627 76.152ZM267.683 88.388C268.485 88.388 269.157 88.1547 269.699 87.688C270.259 87.2213 270.604 86.5587 270.735 85.7H264.743C264.743 86.5213 265.023 87.1747 265.583 87.66C266.143 88.1453 266.843 88.388 267.683 88.388ZM282.837 78.98C283.397 78.1213 284.097 77.4493 284.937 76.964C285.777 76.46 286.71 76.208 287.737 76.208V81.276H286.421C285.226 81.276 284.33 81.5373 283.733 82.06C283.135 82.564 282.837 83.46 282.837 84.748V92H278.049V76.376H282.837V78.98ZM292.433 74.752C291.593 74.752 290.902 74.5093 290.361 74.024C289.838 73.52 289.577 72.904 289.577 72.176C289.577 71.4293 289.838 70.8133 290.361 70.328C290.902 69.824 291.593 69.572 292.433 69.572C293.254 69.572 293.926 69.824 294.449 70.328C294.99 70.8133 295.261 71.4293 295.261 72.176C295.261 72.904 294.99 73.52 294.449 74.024C293.926 74.5093 293.254 74.752 292.433 74.752ZM294.813 76.376V92H290.025V76.376H294.813ZM319.644 76.376V92H314.856V89.872C314.371 90.5627 313.708 91.1227 312.868 91.552C312.047 91.9627 311.132 92.168 310.124 92.168C308.93 92.168 307.875 91.9067 306.96 91.384C306.046 90.8427 305.336 90.068 304.832 89.06C304.328 88.052 304.076 86.8667 304.076 85.504V76.376H308.836V84.86C308.836 85.9053 309.107 86.7173 309.648 87.296C310.19 87.8747 310.918 88.164 311.832 88.164C312.766 88.164 313.503 87.8747 314.044 87.296C314.586 86.7173 314.856 85.9053 314.856 84.86V76.376H319.644ZM309.116 74.64C308.538 74.64 308.052 74.444 307.66 74.052C307.268 73.66 307.072 73.1747 307.072 72.596C307.072 72.0173 307.268 71.532 307.66 71.14C308.052 70.7293 308.538 70.524 309.116 70.524C309.714 70.524 310.208 70.72 310.6 71.112C310.992 71.504 311.188 71.9987 311.188 72.596C311.188 73.1747 310.983 73.66 310.572 74.052C310.18 74.444 309.695 74.64 309.116 74.64ZM314.716 74.64C314.138 74.64 313.652 74.444 313.26 74.052C312.868 73.66 312.672 73.1747 312.672 72.596C312.672 72.0173 312.868 71.532 313.26 71.14C313.652 70.7293 314.138 70.524 314.716 70.524C315.314 70.524 315.808 70.72 316.2 71.112C316.592 71.504 316.788 71.9987 316.788 72.596C316.788 73.1747 316.583 73.66 316.172 74.052C315.78 74.444 315.295 74.64 314.716 74.64ZM329.888 88.136C331.12 88.136 331.95 87.5387 332.38 86.344H337.476C337.121 87.9307 336.412 89.228 335.348 90.236C334.284 91.244 332.958 91.8693 331.372 92.112V93.148C332.342 93.148 333.192 93.4093 333.92 93.932C334.648 94.4733 335.012 95.276 335.012 96.34C335.012 97.404 334.629 98.2067 333.864 98.748C333.098 99.308 332.184 99.588 331.12 99.588H326.808V96.956H330.476C330.849 96.956 331.129 96.9 331.316 96.788C331.502 96.676 331.596 96.4893 331.596 96.228C331.596 95.9667 331.502 95.78 331.316 95.668C331.129 95.5747 330.849 95.528 330.476 95.528H328.488V92.112C326.565 91.8133 325.025 90.964 323.868 89.564C322.71 88.1453 322.132 86.3533 322.132 84.188C322.132 82.564 322.458 81.1453 323.112 79.932C323.784 78.7187 324.708 77.7853 325.884 77.132C327.078 76.4787 328.441 76.152 329.972 76.152C331.932 76.152 333.565 76.6653 334.872 77.692C336.197 78.7187 337.065 80.1653 337.476 82.032H332.38C331.95 80.8373 331.12 80.24 329.888 80.24C329.01 80.24 328.31 80.5853 327.788 81.276C327.265 81.948 327.004 82.9187 327.004 84.188C327.004 85.4573 327.265 86.4373 327.788 87.128C328.31 87.8 329.01 88.136 329.888 88.136ZM355.465 76.376V92H350.677V89.872C350.191 90.5627 349.529 91.1227 348.689 91.552C347.867 91.9627 346.953 92.168 345.945 92.168C344.75 92.168 343.695 91.9067 342.781 91.384C341.866 90.8427 341.157 90.068 340.653 89.06C340.149 88.052 339.897 86.8667 339.897 85.504V76.376H344.657V84.86C344.657 85.9053 344.927 86.7173 345.469 87.296C346.01 87.8747 346.738 88.164 347.653 88.164C348.586 88.164 349.323 87.8747 349.865 87.296C350.406 86.7173 350.677 85.9053 350.677 84.86V76.376H355.465ZM344.937 74.64C344.358 74.64 343.873 74.444 343.481 74.052C343.089 73.66 342.893 73.1747 342.893 72.596C342.893 72.0173 343.089 71.532 343.481 71.14C343.873 70.7293 344.358 70.524 344.937 70.524C345.534 70.524 346.029 70.72 346.421 71.112C346.813 71.504 347.009 71.9987 347.009 72.596C347.009 73.1747 346.803 73.66 346.393 74.052C346.001 74.444 345.515 74.64 344.937 74.64ZM350.537 74.64C349.958 74.64 349.473 74.444 349.081 74.052C348.689 73.66 348.493 73.1747 348.493 72.596C348.493 72.0173 348.689 71.532 349.081 71.14C349.473 70.7293 349.958 70.524 350.537 70.524C351.134 70.524 351.629 70.72 352.021 71.112C352.413 71.504 352.609 71.9987 352.609 72.596C352.609 73.1747 352.403 73.66 351.993 74.052C351.601 74.444 351.115 74.64 350.537 74.64ZM368.424 76.208C370.253 76.208 371.709 76.8053 372.792 78C373.893 79.176 374.444 80.8 374.444 82.872V92H369.684V83.516C369.684 82.4707 369.413 81.6587 368.872 81.08C368.331 80.5013 367.603 80.212 366.688 80.212C365.773 80.212 365.045 80.5013 364.504 81.08C363.963 81.6587 363.692 82.4707 363.692 83.516V92H358.904V76.376H363.692V78.448C364.177 77.7573 364.831 77.216 365.652 76.824C366.473 76.4133 367.397 76.208 368.424 76.208Z" fill="white"/>
</g>
<defs>
<filter id="filter0_d_3261_19061" x="0" y="0" width="454" height="172" filterUnits="userSpaceOnUse" color-interpolation-filters="sRGB">
<feFlood flood-opacity="0" result="BackgroundImageFix"/>
<feColorMatrix in="SourceAlpha" type="matrix" values="0 0 0 0 0 0 0 0 0 0 0 0 0 0 0 0 0 0 127 0" result="hardAlpha"/>
<feOffset dy="4"/>
<feGaussianBlur stdDeviation="8"/>
<feComposite in2="hardAlpha" operator="out"/>
<feColorMatrix type="matrix" values="0 0 0 0 0.12549 0 0 0 0 0.12549 0 0 0 0 0.12549 0 0 0 0.15 0"/>
<feBlend mode="normal" in2="BackgroundImageFix" result="effect1_dropShadow_3261_19061"/>
<feBlend mode="normal" in="SourceGraphic" in2="effect1_dropShadow_3261_19061" result="shape"/>
</filter>
</defs>
</svg>