<svg width="260" height="98" viewBox="0 0 454 172" fill="none" xmlns="http://www.w3.org/2000/svg">
<g filter="url(#filter0_d_3261_19038)">
<rect x="16" y="12" width="422" height="140" rx="25" fill="white" shape-rendering="crispEdges"/>
<path d="M129.335 62.0001C129.335 69.3639 123.365 75.3334 116.001 75.3334C108.638 75.3334 102.668 69.3639 102.668 62.0001C102.668 54.6363 108.638 48.6667 116.001 48.6667C123.365 48.6667 129.335 54.6363 129.335 62.0001Z" fill="#3598EA"/>
<path d="M128.259 87.0092C126.682 87.0283 125.213 87.0858 123.932 87.258C121.789 87.5461 119.443 88.2348 117.505 90.1729C115.567 92.111 114.878 94.4566 114.59 96.5996C114.331 98.5253 114.332 100.878 114.332 103.38V103.953C114.332 106.455 114.331 108.808 114.59 110.734C114.792 112.237 115.192 113.841 116.082 115.333C116.054 115.333 116.026 115.333 115.999 115.333C89.332 115.333 89.332 108.618 89.332 100.333C89.332 92.049 101.271 85.3333 115.999 85.3333C120.419 85.3333 124.589 85.9383 128.259 87.0092Z" fill="#3598EA"/>
<path fillRule="evenodd" clip-rule="evenodd" d="M130.999 115.333C125.499 115.333 122.749 115.333 121.041 113.625C119.332 111.916 119.332 109.166 119.332 103.667C119.332 98.1669 119.332 95.4171 121.041 93.7085C122.749 92 125.499 92 130.999 92C136.498 92 139.248 92 140.957 93.7085C142.665 95.4171 142.665 98.1669 142.665 103.667C142.665 109.166 142.665 111.916 140.957 113.625C139.248 115.333 136.498 115.333 130.999 115.333ZM137.559 101.153C138.318 100.393 138.318 99.1622 137.559 98.4028C136.799 97.6435 135.568 97.6435 134.809 98.4028L128.406 104.806L127.188 103.588C126.429 102.829 125.198 102.829 124.439 103.588C123.679 104.347 123.679 105.579 124.439 106.338L127.031 108.93C127.791 109.69 129.022 109.69 129.781 108.93L137.559 101.153Z" fill="#3598EA"/>
<path d="M194.848 92.196C193.411 92.196 192.123 91.9627 190.984 91.496C189.845 91.0293 188.931 90.3387 188.24 89.424C187.568 88.5093 187.213 87.408 187.176 86.12H192.272C192.347 86.848 192.599 87.408 193.028 87.8C193.457 88.1733 194.017 88.36 194.708 88.36C195.417 88.36 195.977 88.2013 196.388 87.884C196.799 87.548 197.004 87.0907 197.004 86.512C197.004 86.0267 196.836 85.6253 196.5 85.308C196.183 84.9907 195.781 84.7293 195.296 84.524C194.829 84.3187 194.157 84.0853 193.28 83.824C192.011 83.432 190.975 83.04 190.172 82.648C189.369 82.256 188.679 81.6773 188.1 80.912C187.521 80.1467 187.232 79.148 187.232 77.916C187.232 76.0867 187.895 74.6587 189.22 73.632C190.545 72.5867 192.272 72.064 194.4 72.064C196.565 72.064 198.311 72.5867 199.636 73.632C200.961 74.6587 201.671 76.096 201.764 77.944H196.584C196.547 77.3093 196.313 76.8147 195.884 76.46C195.455 76.0867 194.904 75.9 194.232 75.9C193.653 75.9 193.187 76.0587 192.832 76.376C192.477 76.6747 192.3 77.1133 192.3 77.692C192.3 78.3267 192.599 78.8213 193.196 79.176C193.793 79.5307 194.727 79.9133 195.996 80.324C197.265 80.7533 198.292 81.164 199.076 81.556C199.879 81.948 200.569 82.5173 201.148 83.264C201.727 84.0107 202.016 84.972 202.016 86.148C202.016 87.268 201.727 88.2853 201.148 89.2C200.588 90.1147 199.767 90.8427 198.684 91.384C197.601 91.9253 196.323 92.196 194.848 92.196ZM207.371 74.752C206.531 74.752 205.84 74.5093 205.299 74.024C204.776 73.52 204.515 72.904 204.515 72.176C204.515 71.4293 204.776 70.8133 205.299 70.328C205.84 69.824 206.531 69.572 207.371 69.572C208.192 69.572 208.864 69.824 209.387 70.328C209.928 70.8133 210.199 71.4293 210.199 72.176C210.199 72.904 209.928 73.52 209.387 74.024C208.864 74.5093 208.192 74.752 207.371 74.752ZM209.751 76.376V92H204.963V76.376H209.751ZM221.06 80.352H218.484V92H213.696V80.352H211.96V76.376H213.696V75.928C213.696 74.0053 214.247 72.5493 215.348 71.56C216.45 70.552 218.064 70.048 220.192 70.048C220.547 70.048 220.808 70.0573 220.976 70.076V74.136C220.062 74.08 219.418 74.2107 219.044 74.528C218.671 74.8453 218.484 75.4147 218.484 76.236V76.376H221.06V80.352ZM222.358 84.16C222.358 82.5547 222.657 81.1453 223.254 79.932C223.87 78.7187 224.701 77.7853 225.746 77.132C226.792 76.4787 227.958 76.152 229.246 76.152C230.348 76.152 231.309 76.376 232.13 76.824C232.97 77.272 233.614 77.86 234.062 78.588V76.376H238.85V92H234.062V89.788C233.596 90.516 232.942 91.104 232.102 91.552C231.281 92 230.32 92.224 229.218 92.224C227.949 92.224 226.792 91.8973 225.746 91.244C224.701 90.572 223.87 89.6293 223.254 88.416C222.657 87.184 222.358 85.7653 222.358 84.16ZM234.062 84.188C234.062 82.9933 233.726 82.0507 233.054 81.36C232.401 80.6693 231.598 80.324 230.646 80.324C229.694 80.324 228.882 80.6693 228.21 81.36C227.557 82.032 227.23 82.9653 227.23 84.16C227.23 85.3547 227.557 86.3067 228.21 87.016C228.882 87.7067 229.694 88.052 230.646 88.052C231.598 88.052 232.401 87.7067 233.054 87.016C233.726 86.3253 234.062 85.3827 234.062 84.188ZM247.102 78.98C247.662 78.1213 248.362 77.4493 249.202 76.964C250.042 76.46 250.975 76.208 252.002 76.208V81.276H250.686C249.491 81.276 248.595 81.5373 247.998 82.06C247.401 82.564 247.102 83.46 247.102 84.748V92H242.314V76.376H247.102V78.98ZM256.699 74.752C255.859 74.752 255.168 74.5093 254.627 74.024C254.104 73.52 253.843 72.904 253.843 72.176C253.843 71.4293 254.104 70.8133 254.627 70.328C255.168 69.824 255.859 69.572 256.699 69.572C257.52 69.572 258.192 69.824 258.715 70.328C259.256 70.8133 259.527 71.4293 259.527 72.176C259.527 72.904 259.256 73.52 258.715 74.024C258.192 74.5093 257.52 74.752 256.699 74.752ZM259.079 76.376V92H254.291V76.376H259.079ZM270.445 93.148C271.415 93.148 272.265 93.4093 272.993 93.932C273.721 94.4733 274.085 95.276 274.085 96.34C274.085 97.404 273.702 98.2067 272.937 98.748C272.171 99.308 271.257 99.588 270.193 99.588H265.881V96.956H269.549C269.922 96.956 270.202 96.9 270.389 96.788C270.575 96.676 270.669 96.4893 270.669 96.228C270.669 95.9667 270.575 95.78 270.389 95.668C270.202 95.5747 269.922 95.528 269.549 95.528H267.561V92.14C265.862 91.916 264.481 91.328 263.417 90.376C262.371 89.4053 261.802 88.2387 261.709 86.876H266.441C266.497 87.4173 266.749 87.856 267.197 88.192C267.645 88.528 268.195 88.696 268.849 88.696C269.446 88.696 269.903 88.584 270.221 88.36C270.557 88.1173 270.725 87.8093 270.725 87.436C270.725 86.988 270.491 86.6613 270.025 86.456C269.558 86.232 268.802 85.9893 267.757 85.728C266.637 85.4667 265.703 85.196 264.957 84.916C264.21 84.6173 263.566 84.16 263.025 83.544C262.483 82.9093 262.213 82.06 262.213 80.996C262.213 80.1 262.455 79.288 262.941 78.56C263.445 77.8133 264.173 77.2253 265.125 76.796C266.095 76.3667 267.243 76.152 268.569 76.152C270.529 76.152 272.069 76.6373 273.189 77.608C274.327 78.5787 274.981 79.8667 275.149 81.472H270.725C270.65 80.9307 270.407 80.5013 269.997 80.184C269.605 79.8667 269.082 79.708 268.429 79.708C267.869 79.708 267.439 79.82 267.141 80.044C266.842 80.2493 266.693 80.5387 266.693 80.912C266.693 81.36 266.926 81.696 267.393 81.92C267.878 82.144 268.625 82.368 269.633 82.592C270.79 82.8907 271.733 83.1893 272.461 83.488C273.189 83.768 273.823 84.2347 274.365 84.888C274.925 85.5227 275.214 86.3813 275.233 87.464C275.233 88.6587 274.803 89.676 273.945 90.516C273.105 91.3373 271.938 91.8693 270.445 92.112V93.148ZM293.699 76.208C295.491 76.208 296.929 76.8053 298.011 78C299.094 79.176 299.635 80.8 299.635 82.872V92H294.875V83.516C294.875 82.4707 294.605 81.6587 294.063 81.08C293.522 80.5013 292.794 80.212 291.879 80.212C290.965 80.212 290.237 80.5013 289.695 81.08C289.154 81.6587 288.883 82.4707 288.883 83.516V92H284.095V71.28H288.883V78.476C289.369 77.7853 290.031 77.2347 290.871 76.824C291.711 76.4133 292.654 76.208 293.699 76.208ZM302.011 84.16C302.011 82.5547 302.309 81.1453 302.907 79.932C303.523 78.7187 304.353 77.7853 305.399 77.132C306.444 76.4787 307.611 76.152 308.899 76.152C310 76.152 310.961 76.376 311.783 76.824C312.623 77.272 313.267 77.86 313.715 78.588V76.376H318.503V92H313.715V89.788C313.248 90.516 312.595 91.104 311.755 91.552C310.933 92 309.972 92.224 308.871 92.224C307.601 92.224 306.444 91.8973 305.399 91.244C304.353 90.572 303.523 89.6293 302.907 88.416C302.309 87.184 302.011 85.7653 302.011 84.16ZM313.715 84.188C313.715 82.9933 313.379 82.0507 312.707 81.36C312.053 80.6693 311.251 80.324 310.299 80.324C309.347 80.324 308.535 80.6693 307.863 81.36C307.209 82.032 306.883 82.9653 306.883 84.16C306.883 85.3547 307.209 86.3067 307.863 87.016C308.535 87.7067 309.347 88.052 310.299 88.052C311.251 88.052 312.053 87.7067 312.707 87.016C313.379 86.3253 313.715 85.3827 313.715 84.188ZM321.014 84.216C321.014 82.6667 321.332 81.2853 321.966 80.072C322.62 78.8587 323.488 77.916 324.57 77.244C325.672 76.5533 326.866 76.208 328.154 76.208C329.144 76.208 330.03 76.3853 330.814 76.74C331.598 77.076 332.233 77.552 332.718 78.168V76.376H337.506V99.448H332.718V90.04C332.177 90.6933 331.514 91.216 330.73 91.608C329.965 92 329.088 92.196 328.098 92.196C326.829 92.196 325.653 91.86 324.57 91.188C323.488 90.516 322.62 89.5733 321.966 88.36C321.332 87.1467 321.014 85.7653 321.014 84.216ZM332.718 84.188C332.718 83.348 332.55 82.648 332.214 82.088C331.897 81.5093 331.477 81.08 330.954 80.8C330.432 80.5013 329.881 80.352 329.302 80.352C328.742 80.352 328.201 80.5013 327.678 80.8C327.156 81.08 326.726 81.5093 326.39 82.088C326.054 82.6667 325.886 83.376 325.886 84.216C325.886 85.056 326.054 85.7653 326.39 86.344C326.726 86.904 327.156 87.3333 327.678 87.632C328.201 87.912 328.742 88.052 329.302 88.052C329.862 88.052 330.404 87.912 330.926 87.632C331.468 87.3333 331.897 86.8947 332.214 86.316C332.55 85.7373 332.718 85.028 332.718 84.188ZM340.018 84.16C340.018 82.5547 340.317 81.1453 340.914 79.932C341.53 78.7187 342.361 77.7853 343.406 77.132C344.452 76.4787 345.618 76.152 346.906 76.152C347.933 76.152 348.866 76.3667 349.706 76.796C350.565 77.2253 351.237 77.804 351.722 78.532V71.28H356.51V92H351.722V89.76C351.274 90.5067 350.63 91.104 349.79 91.552C348.969 92 348.008 92.224 346.906 92.224C345.618 92.224 344.452 91.8973 343.406 91.244C342.361 90.572 341.53 89.6293 340.914 88.416C340.317 87.184 340.018 85.7653 340.018 84.16ZM351.722 84.188C351.722 82.9933 351.386 82.0507 350.714 81.36C350.061 80.6693 349.258 80.324 348.306 80.324C347.354 80.324 346.542 80.6693 345.87 81.36C345.217 82.032 344.89 82.9653 344.89 84.16C344.89 85.3547 345.217 86.3067 345.87 87.016C346.542 87.7067 347.354 88.052 348.306 88.052C349.258 88.052 350.061 87.7067 350.714 87.016C351.386 86.3253 351.722 85.3827 351.722 84.188ZM359.022 84.16C359.022 82.5547 359.321 81.1453 359.918 79.932C360.534 78.7187 361.365 77.7853 362.41 77.132C363.456 76.4787 364.622 76.152 365.91 76.152C367.012 76.152 367.973 76.376 368.794 76.824C369.634 77.272 370.278 77.86 370.726 78.588V76.376H375.514V92H370.726V89.788C370.26 90.516 369.606 91.104 368.766 91.552C367.945 92 366.984 92.224 365.882 92.224C364.613 92.224 363.456 91.8973 362.41 91.244C361.365 90.572 360.534 89.6293 359.918 88.416C359.321 87.184 359.022 85.7653 359.022 84.16ZM370.726 84.188C370.726 82.9933 370.39 82.0507 369.718 81.36C369.065 80.6693 368.262 80.324 367.31 80.324C366.358 80.324 365.546 80.6693 364.874 81.36C364.221 82.032 363.894 82.9653 363.894 84.16C363.894 85.3547 364.221 86.3067 364.874 87.016C365.546 87.7067 366.358 88.052 367.31 88.052C368.262 88.052 369.065 87.7067 369.718 87.016C370.39 86.3253 370.726 85.3827 370.726 84.188Z" fill="#3598EA"/>
</g>
<defs>
<filter id="filter0_d_3261_19038" x="0" y="0" width="454" height="172" filterUnits="userSpaceOnUse" color-interpolation-filters="sRGB">
<feFlood flood-opacity="0" result="BackgroundImageFix"/>
<feColorMatrix in="SourceAlpha" type="matrix" values="0 0 0 0 0 0 0 0 0 0 0 0 0 0 0 0 0 0 127 0" result="hardAlpha"/>
<feOffset dy="4"/>
<feGaussianBlur stdDeviation="8"/>
<feComposite in2="hardAlpha" operator="out"/>
<feColorMatrix type="matrix" values="0 0 0 0 0.12549 0 0 0 0 0.12549 0 0 0 0 0.12549 0 0 0 0.15 0"/>
<feBlend mode="normal" in2="BackgroundImageFix" result="effect1_dropShadow_3261_19038"/>
<feBlend mode="normal" in="SourceGraphic" in2="effect1_dropShadow_3261_19038" result="shape"/>
</filter>
</defs>
</svg>
