<svg width="23" height="23" viewBox="0 0 23 23" fill="none" xmlns="http://www.w3.org/2000/svg">
<g id="Icon">
<path id="Vector" fillRule="evenodd" clip-rule="evenodd" d="M8.30707 6.8524C8.42919 6.79968 8.56293 6.77961 8.69516 6.79415C8.82739 6.8087 8.95356 6.85737 9.0613 6.93538C9.72053 7.41601 10.2195 8.09128 10.6444 8.71176L10.9774 9.20126C11.0735 9.34168 11.1214 9.5095 11.1138 9.67946C11.1063 9.84943 11.0438 10.0124 10.9357 10.1437L10.885 10.1996L10.1772 10.9072L10.2519 11.0658C10.4346 11.4358 10.7498 11.9686 11.2243 12.4435C11.5519 12.7661 11.9213 13.0434 12.3225 13.2681L12.5141 13.3709L12.6847 13.4554L12.7609 13.4904L13.4682 12.7827C13.5982 12.653 13.7696 12.5729 13.9526 12.5566C14.1355 12.5403 14.3184 12.5888 14.4693 12.6935L14.9986 13.0604C15.5999 13.4831 16.2278 13.9647 16.7158 14.5899C16.8002 14.6984 16.8539 14.8276 16.8712 14.9639C16.8886 15.1002 16.869 15.2387 16.8145 15.3649C16.3776 16.384 15.2721 17.2519 14.1222 17.2091L13.9656 17.2007L13.844 17.1903L13.7093 17.1746L13.5627 17.1548L13.4035 17.1282L13.2333 17.0948L13.0527 17.0546L12.8617 17.0056L12.6607 16.9482L12.4509 16.8803C11.4874 16.5536 10.2644 15.9118 9.00963 14.6572C7.75536 13.4032 7.11335 12.1805 6.7866 11.2172L6.71875 11.0074L6.66133 10.8065L6.61227 10.6155L6.57155 10.4349C6.55979 10.3784 6.54883 10.3217 6.53867 10.2648L6.51257 10.1056L6.49169 9.95899L6.47656 9.82435L6.46612 9.70276L6.45777 9.54621C6.41549 8.40022 7.29238 7.28711 8.30707 6.8524ZM8.57692 7.87889C8.01738 8.17113 7.47559 8.8391 7.50012 9.50759L7.51056 9.67876L7.52204 9.78574L7.53718 9.90576L7.55806 10.0378L7.58468 10.1823L7.6186 10.3379L7.66036 10.5048L7.71047 10.6818L7.76997 10.8686C7.79189 10.9322 7.81486 10.9975 7.83991 11.0643L7.9203 11.2688L8.01216 11.4812C8.33995 12.2024 8.87444 13.0468 9.74768 13.9193C10.6204 14.7919 11.4649 15.3268 12.1863 15.6545L12.3987 15.7463L12.6033 15.8267C12.6701 15.8517 12.7354 15.8747 12.799 15.8966L12.9859 15.9561L13.1634 16.0062L13.3299 16.048L13.4854 16.0819L13.63 16.1085L13.7626 16.1294L13.8826 16.145L13.9891 16.1555L14.1603 16.1659C14.8201 16.1904 15.4934 15.6519 15.7847 15.0998C15.413 14.664 14.9516 14.3065 14.4427 13.9465L14.0523 13.6746L13.9531 13.7784L13.7412 14.0096L13.629 14.1275C13.3231 14.4391 12.9661 14.7037 12.5381 14.5309L12.4201 14.4814L12.276 14.4167L12.1957 14.3786L12.0192 14.2904L11.8256 14.186C11.3355 13.9133 10.8848 13.5754 10.4857 13.1814C10.0917 12.7824 9.75368 12.3318 9.48095 11.8418L9.37656 11.6487L9.28783 11.4718L9.18553 11.2474L9.13594 11.1285C8.97361 10.7272 9.19701 10.3885 9.48252 10.0952L9.59944 9.98039L9.89017 9.71268L9.99456 9.61353L9.74768 9.25188C9.38074 8.71959 9.02215 8.24001 8.57692 7.87889Z" fill="#F64242"/>
<path id="Union" fillRule="evenodd" clip-rule="evenodd" d="M11.3564 0.420898L14.8301 2.42643L11.3564 4.43196V3.08935C6.57602 3.25283 2.75087 7.17963 2.75087 11.9998C2.75087 16.9131 6.72517 20.8982 11.6344 20.9156H12.072C12.4877 20.9156 12.8246 21.2525 12.8246 21.6682C12.8246 22.0839 12.4877 22.4208 12.072 22.4208H11.6667V22.4209H11.6667C11.655 22.4209 11.6434 22.4209 11.6318 22.4208H11.3772C11.3415 22.4208 11.3065 22.4184 11.2721 22.4136C5.69956 22.2062 1.24561 17.6231 1.24561 11.9998C1.24561 6.34824 5.74453 1.74741 11.3564 1.58332V0.420898Z" fill="#F64242"/>
</g>
</svg>
