<svg width="72" height="72" viewBox="0 0 72 72" fill="none" xmlns="http://www.w3.org/2000/svg">
<path d="M38.9754 16.6138C43.075 17.3009 46.799 19.2372 49.772 22.2041C52.745 25.171 54.6696 28.8874 55.3738 32.9787M39.6014 3.2002C46.893 4.43381 53.5431 7.88479 58.8319 13.1472C64.1207 18.4251 67.5631 25.0617 68.7992 32.3384M63.1035 61.2892C63.1035 61.2892 59.1447 65.1774 58.1746 66.3173C56.5942 68.0038 54.7322 68.8002 52.2912 68.8002C52.0565 68.8002 51.8061 68.8002 51.5714 68.7846C46.9242 68.4879 42.6055 66.6765 39.3665 65.1306C30.5102 60.852 22.7334 54.7776 16.2711 47.0793C10.9354 40.6614 7.3678 34.7275 5.00506 28.3565C3.54986 24.4683 3.01785 21.4389 3.25256 18.5813C3.40903 16.7543 4.11316 15.2396 5.41189 13.9435L10.7476 8.61871C11.5143 7.9004 12.328 7.51002 13.126 7.51002C14.1118 7.51002 14.9098 8.1034 15.4105 8.60309C15.4262 8.61871 15.4418 8.63432 15.4574 8.64994C16.4119 9.54001 17.3195 10.4613 18.274 11.4451C18.759 11.9448 19.2597 12.4445 19.7605 12.9598L24.0322 17.2228C25.6908 18.878 25.6908 20.4083 24.0322 22.0635C23.5784 22.5163 23.1403 22.9692 22.6865 23.4064C21.3721 24.7493 22.4046 23.7189 21.0433 24.9369C21.012 24.9682 20.9807 24.9838 20.9651 25.015C19.6194 26.3579 19.8698 27.6696 20.1514 28.5597C20.1671 28.6065 20.1827 28.6534 20.1984 28.7002C21.3093 31.3861 22.8741 33.9157 25.2525 36.9295L25.2681 36.9451C29.5868 42.2543 34.1401 46.3924 39.1629 49.5623C39.8044 49.9683 40.4616 50.2962 41.0875 50.6085C41.6508 50.8896 42.1828 51.1551 42.6366 51.4361C42.6992 51.4674 42.7618 51.5142 42.8244 51.5454C43.3564 51.8109 43.8571 51.9358 44.3734 51.9358C45.6722 51.9358 46.4858 51.1238 46.7518 50.8584L49.8189 47.7976C50.3509 47.2666 51.1959 46.6264 52.1817 46.6264C53.1518 46.6264 53.9498 47.2354 54.4349 47.7663C54.4505 47.7819 54.4505 47.7819 54.4662 47.7976L63.0878 56.4016C64.6995 57.9944 63.1035 61.2892 63.1035 61.2892Z" stroke="white" stroke-width="6" stroke-linecap="round" stroke-linejoin="round"/>
</svg>
