<svg width="11" height="12" viewBox="0 0 11 12" fill="none" xmlns="http://www.w3.org/2000/svg">
    <path fillRule="evenodd" clip-rule="evenodd" d="M2.30707 0.852405C2.42919 0.79968 2.56293 0.779607 2.69516 0.794153C2.82739 0.8087 2.95356 0.857367 3.0613 0.935379C3.72053 1.41601 4.21953 2.09128 4.6444 2.71176L4.97741 3.20126C5.07349 3.34168 5.12137 3.5095 5.11383 3.67946C5.1063 3.84943 5.04378 4.01235 4.93565 4.14373L4.88502 4.19957L4.17725 4.9072L4.25189 5.06584C4.43457 5.43583 4.74984 5.96865 5.2243 6.44353C5.55192 6.76614 5.92127 7.04345 6.3225 7.26806L6.51406 7.37086L6.68474 7.4554L6.76095 7.49037L7.4682 6.78273C7.59818 6.65296 7.76961 6.57293 7.95257 6.55662C8.13554 6.54031 8.31843 6.58875 8.46932 6.6935L8.99858 7.06036C9.59988 7.48306 10.2278 7.96473 10.7158 8.58991C10.8002 8.6984 10.8539 8.82756 10.8712 8.96389C10.8886 9.10021 10.869 9.2387 10.8145 9.36486C10.3776 10.384 9.27209 11.2519 8.12222 11.2091L7.96563 11.2007L7.84401 11.1903L7.70935 11.1746L7.56267 11.1548L7.40348 11.1282L7.23332 11.0948L7.05272 11.0546L6.86168 11.0056L6.66073 10.9482L6.4509 10.8803C5.48737 10.5536 4.26442 9.91176 3.00963 8.65723C1.75536 7.40322 1.11335 6.18052 0.786601 5.21718L0.718747 5.00739L0.661331 4.80648L0.612267 4.61548L0.571554 4.43492C0.559795 4.37837 0.548833 4.32166 0.538671 4.2648L0.512573 4.10563L0.491694 3.95899L0.476558 3.82435L0.466118 3.70276L0.457767 3.54621C0.415488 2.40022 1.29238 1.28711 2.30707 0.852405ZM2.57692 1.87889C2.01738 2.17113 1.47559 2.8391 1.50012 3.50759L1.51056 3.67876L1.52204 3.78574L1.53718 3.90576L1.55806 4.03779L1.58468 4.18234L1.6186 4.33786L1.66036 4.50485L1.71047 4.68176L1.76997 4.86858C1.79189 4.93225 1.81486 4.99748 1.83991 5.06427L1.9203 5.26884L2.01216 5.48123C2.33995 6.20243 2.87444 7.04679 3.74768 7.91933C4.62039 8.79187 5.46492 9.32676 6.18627 9.65449L6.39871 9.74633L6.60331 9.8267C6.67012 9.85175 6.73537 9.87471 6.79905 9.89663L6.98591 9.95612L7.16338 10.0062L7.32988 10.048L7.48542 10.0819L7.63001 10.1085L7.76259 10.1294L7.88264 10.145L7.98912 10.1555L8.16032 10.1659C8.82007 10.1904 9.4934 9.65188 9.78466 9.09976C9.41302 8.66401 8.95161 8.30654 8.4427 7.94647L8.05227 7.67458L7.9531 7.77843L7.74119 8.00961L7.62896 8.12755C7.3231 8.43909 6.96608 8.70367 6.53807 8.53094L6.42011 8.48136L6.27605 8.41665L6.19566 8.37856L6.01924 8.29037L5.82559 8.186C5.33554 7.91333 4.8848 7.57539 4.48573 7.18143C4.09169 6.78243 3.75368 6.33178 3.48095 5.84183L3.37656 5.64875L3.28783 5.47184L3.18553 5.24745L3.13594 5.12846C2.97361 4.72716 3.19701 4.38848 3.48252 4.0952L3.59944 3.98039L3.89017 3.71268L3.99456 3.61353L3.74768 3.25188C3.38074 2.71959 3.02215 2.24001 2.57692 1.87889Z" fill="#F64242"/>
</svg>
