<svg width="21" height="20" viewBox="0 0 21 20" fill="none" xmlns="http://www.w3.org/2000/svg">
<path d="M17.4188 2.91005C16.4974 1.98398 15.3999 1.24972 14.1903 0.750108C12.9807 0.250493 11.6832 -0.0044801 10.3736 5.95695e-05C4.88614 5.95695e-05 0.413776 4.45005 0.413776 9.91003C0.413776 11.66 0.876088 13.36 1.74041 14.86L0.333374 20L5.60976 18.62C7.06704 19.41 8.70523 19.83 10.3736 19.83C15.861 19.83 20.3334 15.38 20.3334 9.92003C20.3334 7.27004 19.2982 4.78005 17.4188 2.91005ZM10.3736 18.15C8.88614 18.15 7.42885 17.75 6.15247 17L5.85096 16.82L2.71528 17.64L3.54945 14.6L3.34845 14.29C2.52206 12.977 2.08326 11.4593 2.08212 9.91003C2.08212 5.37004 5.80071 1.67005 10.3635 1.67005C12.5746 1.67005 14.655 2.53005 16.2128 4.09005C16.9841 4.85401 17.5954 5.7627 18.0112 6.76346C18.4269 7.76422 18.6389 8.83714 18.6349 9.92003C18.655 14.46 14.9364 18.15 10.3736 18.15ZM14.9163 11.99C14.665 11.87 13.4389 11.27 13.2178 11.18C12.9866 11.1 12.8258 11.06 12.655 11.3C12.4841 11.55 12.0118 12.11 11.8711 12.27C11.7304 12.44 11.5796 12.46 11.3283 12.33C11.0771 12.21 10.2731 11.94 9.32835 11.1C8.58463 10.44 8.09217 9.63003 7.94141 9.38003C7.80071 9.13003 7.92131 9.00003 8.05197 8.87003C8.16252 8.76003 8.30322 8.58003 8.42383 8.44003C8.54443 8.30003 8.59468 8.19003 8.67508 8.03004C8.75548 7.86004 8.71528 7.72004 8.65498 7.60004C8.59468 7.48004 8.09217 6.26004 7.89116 5.76004C7.69016 5.28004 7.4791 5.34004 7.32835 5.33004H6.84594C6.67508 5.33004 6.41377 5.39004 6.18262 5.64004C5.96151 5.89004 5.3183 6.49004 5.3183 7.71004C5.3183 8.93003 6.21277 10.11 6.33337 10.27C6.45398 10.44 8.09217 12.94 10.5846 14.01C11.1776 14.27 11.6399 14.42 12.0017 14.53C12.5947 14.72 13.1374 14.69 13.5696 14.63C14.052 14.56 15.0469 14.03 15.2479 13.45C15.459 12.87 15.459 12.38 15.3886 12.27C15.3183 12.16 15.1675 12.11 14.9163 11.99Z" fill="#06BF18"/>
</svg>
