<svg width="16" height="10" viewBox="0 0 16 10" fill="none" xmlns="http://www.w3.org/2000/svg">
<path d="M15.4792 2.291L8.47917 9.31184C8.39583 9.39517 8.30556 9.45434 8.20833 9.48934C8.11111 9.52434 8.00694 9.54156 7.89583 9.541C7.78472 9.541 7.68056 9.5235 7.58333 9.4885C7.48611 9.4535 7.39583 9.39461 7.3125 9.31184L0.291667 2.291C0.0972221 2.09656 0 1.8535 0 1.56184C0 1.27017 0.104167 1.02017 0.3125 0.811836C0.520833 0.603503 0.763889 0.499336 1.04167 0.499336C1.31944 0.499336 1.5625 0.603503 1.77083 0.811836L7.89583 6.93684L14.0208 0.811836C14.2153 0.617392 14.455 0.520169 14.74 0.520169C15.025 0.520169 15.2714 0.624336 15.4792 0.832669C15.6875 1.041 15.7917 1.28406 15.7917 1.56184C15.7917 1.83961 15.6875 2.08267 15.4792 2.291Z" fill="#202020"/>
</svg>
