<svg width="27" height="20" viewBox="0 0 27 20" fill="none" xmlns="http://www.w3.org/2000/svg">
<path d="M12.3334 19.3333H7.08342C5.31397 19.3333 3.80197 18.7208 2.54742 17.4958C1.29286 16.2708 0.665971 14.7736 0.666749 13.0041C0.666749 11.4875 1.12369 10.1361 2.03758 8.94996C2.95147 7.76385 4.1473 7.00551 5.62508 6.67496C6.11119 4.88607 7.08342 3.43746 8.54175 2.32913C10.0001 1.22079 11.6529 0.666626 13.5001 0.666626C15.7751 0.666626 17.7051 1.45918 19.2902 3.04429C20.8754 4.6294 21.6675 6.55907 21.6667 8.83329C23.0084 8.98885 24.1218 9.56751 25.0069 10.5693C25.892 11.5711 26.3342 12.7424 26.3334 14.0833C26.3334 15.5416 25.8228 16.7814 24.8016 17.8026C23.7804 18.8238 22.541 19.3341 21.0834 19.3333H14.6667V10.9916L16.5334 12.8L18.1667 11.1666L13.5001 6.49996L8.83342 11.1666L10.4667 12.8L12.3334 10.9916V19.3333Z" fill="#3598EA"/>
</svg>
