<svg width="14" height="14" viewBox="0 0 14 14" fill="none" xmlns="http://www.w3.org/2000/svg">
    <path d="M6 10H7.33333V6H6V10ZM6.66667 4.66667C6.85556 4.66667 7.014 4.60267 7.142 4.47467C7.27 4.34667 7.33378 4.18844 7.33333 4C7.33333 3.81111 7.26933 3.65267 7.14133 3.52467C7.01333 3.39667 6.85511 3.33289 6.66667 3.33333C6.47778 3.33333 6.31933 3.39733 6.19133 3.52533C6.06333 3.65333 5.99956 3.81156 6 4C6 4.18889 6.064 4.34733 6.192 4.47533C6.32 4.60333 6.47822 4.66711 6.66667 4.66667ZM6.66667 13.3333C5.74444 13.3333 4.87778 13.1582 4.06667 12.808C3.25556 12.4578 2.55 11.9829 1.95 11.3833C1.35 10.7833 0.875111 10.0778 0.525333 9.26667C0.175556 8.45555 0.000444444 7.58889 0 6.66667C0 5.74444 0.175111 4.87778 0.525333 4.06667C0.875556 3.25556 1.35044 2.55 1.95 1.95C2.55 1.35 3.25556 0.875111 4.06667 0.525333C4.87778 0.175556 5.74444 0.000444444 6.66667 0C7.58889 0 8.45555 0.175111 9.26667 0.525333C10.0778 0.875556 10.7833 1.35044 11.3833 1.95C11.9833 2.55 12.4584 3.25556 12.8087 4.06667C13.1589 4.87778 13.3338 5.74444 13.3333 6.66667C13.3333 7.58889 13.1582 8.45555 12.808 9.26667C12.4578 10.0778 11.9829 10.7833 11.3833 11.3833C10.7833 11.9833 10.0778 12.4584 9.26667 12.8087C8.45555 13.1589 7.58889 13.3338 6.66667 13.3333Z" fill="#3598EA"/>
</svg>
