<svg width="12" height="12" viewBox="0 0 12 12" fill="none" xmlns="http://www.w3.org/2000/svg">
<path d="M10.9993 6.83171H6.83268V10.9984C6.83268 11.2194 6.74488 11.4313 6.5886 11.5876C6.43232 11.7439 6.22036 11.8317 5.99935 11.8317C5.77834 11.8317 5.56637 11.7439 5.41009 11.5876C5.25381 11.4313 5.16602 11.2194 5.16602 10.9984V6.83171H0.999349C0.778335 6.83171 0.566374 6.74391 0.410093 6.58763C0.253813 6.43135 0.166016 6.21939 0.166016 5.99837C0.166016 5.77736 0.253813 5.5654 0.410093 5.40912C0.566374 5.25284 0.778335 5.16504 0.999349 5.16504H5.16602V0.998372C5.16602 0.777359 5.25381 0.565397 5.41009 0.409117C5.56637 0.252836 5.77834 0.165039 5.99935 0.165039C6.22036 0.165039 6.43232 0.252836 6.5886 0.409117C6.74488 0.565397 6.83268 0.777359 6.83268 0.998372V5.16504H10.9993C11.2204 5.16504 11.4323 5.25284 11.5886 5.40912C11.7449 5.5654 11.8327 5.77736 11.8327 5.99837C11.8327 6.21939 11.7449 6.43135 11.5886 6.58763C11.4323 6.74391 11.2204 6.83171 10.9993 6.83171Z" fill="white"/>
</svg>
