<svg width="16" height="10" viewBox="0 0 16 10" fill="none" xmlns="http://www.w3.org/2000/svg">
<path d="M0.520833 7.709L7.52083 0.688164C7.60417 0.604831 7.69444 0.545664 7.79167 0.510664C7.88889 0.475664 7.99306 0.458442 8.10417 0.458997C8.21528 0.458997 8.31944 0.476497 8.41667 0.511497C8.51389 0.546497 8.60417 0.605386 8.6875 0.688164L15.7083 7.709C15.9028 7.90344 16 8.1465 16 8.43816C16 8.72983 15.8958 8.97983 15.6875 9.18816C15.4792 9.3965 15.2361 9.50066 14.9583 9.50066C14.6806 9.50066 14.4375 9.3965 14.2292 9.18816L8.10417 3.06316L1.97917 9.18816C1.78472 9.38261 1.545 9.47983 1.26 9.47983C0.975 9.47983 0.728611 9.37566 0.520833 9.16733C0.3125 8.959 0.208333 8.71594 0.208333 8.43816C0.208333 8.16039 0.3125 7.91733 0.520833 7.709Z" fill="#202020"/>
</svg>
