<svg width="20" height="21" viewBox="0 0 20 21" fill="none" xmlns="http://www.w3.org/2000/svg">
<path d="M2.52083 13.709L9.52083 6.68816C9.60417 6.60483 9.69444 6.54566 9.79167 6.51066C9.88889 6.47566 9.99306 6.45844 10.1042 6.459C10.2153 6.459 10.3194 6.4765 10.4167 6.5115C10.5139 6.5465 10.6042 6.60539 10.6875 6.68816L17.7083 13.709C17.9028 13.9034 18 14.1465 18 14.4382C18 14.7298 17.8958 14.9798 17.6875 15.1882C17.4792 15.3965 17.2361 15.5007 16.9583 15.5007C16.6806 15.5007 16.4375 15.3965 16.2292 15.1882L10.1042 9.06316L3.97917 15.1882C3.78472 15.3826 3.545 15.4798 3.26 15.4798C2.975 15.4798 2.72861 15.3757 2.52083 15.1673C2.3125 14.959 2.20833 14.7159 2.20833 14.4382C2.20833 14.1604 2.3125 13.9173 2.52083 13.709Z" fill="#3598EA"/>
</svg>
