<svg width="16" height="16" viewBox="0 0 16 16" fill="none" xmlns="http://www.w3.org/2000/svg">
<path d="M12.136 0.3885C12.3571 0.333203 12.5878 0.328998 12.8107 0.376203C13.0337 0.423408 13.2429 0.520783 13.4226 0.660935C13.6023 0.801088 13.7476 0.980333 13.8477 1.18506C13.9477 1.38979 13.9998 1.61463 14 1.8425V3.0625H14.5C14.8978 3.0625 15.2794 3.22054 15.5607 3.50184C15.842 3.78314 16 4.16467 16 4.5625V13.5625C16 13.9603 15.842 14.3419 15.5607 14.6232C15.2794 14.9045 14.8978 15.0625 14.5 15.0625H1.5C1.10218 15.0625 0.720644 14.9045 0.43934 14.6232C0.158035 14.3419 9.80916e-08 13.9603 9.80916e-08 13.5625V4.5625C-0.000139461 4.17635 0.148642 3.80503 0.415377 3.52581C0.682113 3.2466 1.04625 3.081 1.432 3.0635L12.136 0.3885ZM5.562 3.0625H13V1.8425C12.9998 1.76664 12.9824 1.6918 12.949 1.62368C12.9156 1.55555 12.8672 1.49591 12.8074 1.44927C12.7475 1.40263 12.6779 1.37022 12.6036 1.3545C12.5294 1.33877 12.4526 1.34014 12.379 1.3585L5.562 3.0625ZM1.5 4.0625C1.36739 4.0625 1.24021 4.11518 1.14645 4.20895C1.05268 4.30271 1 4.42989 1 4.5625V13.5625C1 13.6951 1.05268 13.8223 1.14645 13.9161C1.24021 14.0098 1.36739 14.0625 1.5 14.0625H14.5C14.6326 14.0625 14.7598 14.0098 14.8536 13.9161C14.9473 13.8223 15 13.6951 15 13.5625V4.5625C15 4.42989 14.9473 4.30271 14.8536 4.20895C14.7598 4.11518 14.6326 4.0625 14.5 4.0625H1.5Z" fill="#202020"/>
</svg>
