<svg width="16" height="15" viewBox="0 0 16 15" fill="none" xmlns="http://www.w3.org/2000/svg">
<path d="M12.136 0.326002C12.3571 0.270705 12.5878 0.2665 12.8107 0.313705C13.0337 0.36091 13.2429 0.458285 13.4226 0.598437C13.6023 0.738589 13.7476 0.917835 13.8477 1.12257C13.9477 1.3273 13.9998 1.55213 14 1.78V3H14.5C14.8978 3 15.2794 3.15804 15.5607 3.43934C15.842 3.72065 16 4.10218 16 4.5V13.5C16 13.8978 15.842 14.2794 15.5607 14.5607C15.2794 14.842 14.8978 15 14.5 15H1.5C1.10218 15 0.720644 14.842 0.43934 14.5607C0.158035 14.2794 9.80916e-08 13.8978 9.80916e-08 13.5V4.5C-0.000139461 4.11386 0.148642 3.74253 0.415377 3.46332C0.682113 3.1841 1.04625 3.01851 1.432 3.001L12.136 0.326002ZM5.562 3H13V1.78C12.9998 1.70414 12.9824 1.62931 12.949 1.56118C12.9156 1.49305 12.8672 1.43341 12.8074 1.38677C12.7475 1.34013 12.6779 1.30773 12.6036 1.292C12.5294 1.27627 12.4526 1.27764 12.379 1.296L5.562 3ZM1.5 4C1.36739 4 1.24021 4.05268 1.14645 4.14645C1.05268 4.24022 1 4.36739 1 4.5V13.5C1 13.6326 1.05268 13.7598 1.14645 13.8536C1.24021 13.9473 1.36739 14 1.5 14H14.5C14.6326 14 14.7598 13.9473 14.8536 13.8536C14.9473 13.7598 15 13.6326 15 13.5V4.5C15 4.36739 14.9473 4.24022 14.8536 4.14645C14.7598 4.05268 14.6326 4 14.5 4H1.5Z" fill="#959595"/>
</svg>
