<svg width="22" height="22" viewBox="0 0 22 22" fill="none" xmlns="http://www.w3.org/2000/svg">
<path d="M15.0455 6.2936C15.0455 8.99625 13.3292 10.9697 11.212 10.9697C9.09473 10.9697 7.37837 8.99625 7.37837 6.2936C7.37837 3.59095 9.09473 1.40002 11.212 1.40002C13.3292 1.40002 15.0455 3.59095 15.0455 6.2936Z" stroke="#A2A2A2" stroke-width="1.5" stroke-linejoin="round"/>
<path d="M3.40022 14.8845C3.67503 14.3834 4.17938 14.0753 4.72477 14.0753H17.2753C17.8207 14.0753 18.325 14.3834 18.5998 14.8845L20.3888 18.1469C20.9852 19.2344 20.2478 20.6 19.0643 20.6H2.93577C1.75228 20.6 1.01489 19.2344 1.61122 18.1469L3.40022 14.8845Z" stroke="#A2A2A2" stroke-width="1.5" stroke-linejoin="round"/>
</svg>
