<svg width="22" height="22" viewBox="0 0 22 22" fill="none" xmlns="http://www.w3.org/2000/svg">
<path d="M20.6 15.56V16.31C21.0142 16.31 21.35 15.9742 21.35 15.56H20.6ZM20.6 10.28H21.35C21.35 9.8658 21.0142 9.53002 20.6 9.53002V10.28ZM6.27443 5.32913C5.926 5.55312 5.82512 6.01716 6.04911 6.36558C6.2731 6.71401 6.73713 6.81489 7.08556 6.5909L6.27443 5.32913ZM13.4 1.64001L13.992 1.17956C13.7537 0.873151 13.3209 0.799221 12.9944 1.00913L13.4 1.64001ZM16.168 6.42047C16.4223 6.74743 16.8935 6.80633 17.2204 6.55203C17.5474 6.29773 17.6063 5.82652 17.352 5.49956L16.168 6.42047ZM20.6 14.81H17.48V16.31H20.6V14.81ZM17.48 11.03H20.6V9.53002H17.48V11.03ZM19.85 10.28V15.56H21.35V10.28H19.85ZM15.59 12.92C15.59 11.8762 16.4362 11.03 17.48 11.03V9.53002C15.6077 9.53002 14.09 11.0478 14.09 12.92H15.59ZM17.48 14.81C16.4362 14.81 15.59 13.9638 15.59 12.92H14.09C14.09 14.7923 15.6077 16.31 17.48 16.31V14.81ZM7.08556 6.5909L13.8056 2.2709L12.9944 1.00913L6.27443 5.32913L7.08556 6.5909ZM12.808 2.10047L16.168 6.42047L17.352 5.49956L13.992 1.17956L12.808 2.10047ZM2.35999 6.71002H18.68V5.21002H2.35999V6.71002ZM18.68 19.61H2.35999V21.11H18.68V19.61ZM2.14999 19.4V6.92002H0.649994V19.4H2.14999ZM2.35999 19.61C2.24401 19.61 2.14999 19.516 2.14999 19.4H0.649994C0.649994 20.3444 1.41559 21.11 2.35999 21.11V19.61ZM18.89 19.4C18.89 19.516 18.796 19.61 18.68 19.61V21.11C19.6244 21.11 20.39 20.3444 20.39 19.4H18.89ZM18.68 6.71002C18.796 6.71002 18.89 6.80403 18.89 6.92002H20.39C20.39 5.97561 19.6244 5.21002 18.68 5.21002V6.71002ZM2.35999 5.21002C1.41559 5.21002 0.649994 5.97561 0.649994 6.92002H2.14999C2.14999 6.80404 2.24401 6.71002 2.35999 6.71002V5.21002ZM18.89 16.28V19.4H20.39V16.28H18.89ZM18.89 6.92002V9.44002H20.39V6.92002H18.89Z" fill="#A2A2A2"/>
</svg>
