<svg width="22" height="22" viewBox="0 0 22 22" fill="none" xmlns="http://www.w3.org/2000/svg">
<path d="M20.6 15.56V16.56C21.1523 16.56 21.6 16.1123 21.6 15.56H20.6ZM20.6 10.28H21.6C21.6 9.72773 21.1523 9.28002 20.6 9.28002V10.28ZM6.13924 5.11884C5.67467 5.41749 5.54016 6.0362 5.83881 6.50077C6.13747 6.96534 6.75618 7.09985 7.22075 6.80119L6.13924 5.11884ZM13.4 1.64001L14.1893 1.02607C13.8716 0.61753 13.2946 0.518957 12.8592 0.798836L13.4 1.64001ZM15.9706 6.57396C16.3097 7.0099 16.938 7.08844 17.3739 6.74937C17.8099 6.4103 17.8884 5.78202 17.5493 5.34607L15.9706 6.57396ZM20.6 14.56H17.48V16.56H20.6V14.56ZM17.48 11.28H20.6V9.28002H17.48V11.28ZM19.6 10.28V15.56H21.6V10.28H19.6ZM15.84 12.92C15.84 12.0143 16.5742 11.28 17.48 11.28V9.28002C15.4697 9.28002 13.84 10.9097 13.84 12.92H15.84ZM17.48 14.56C16.5742 14.56 15.84 13.8258 15.84 12.92H13.84C13.84 14.9303 15.4697 16.56 17.48 16.56V14.56ZM7.22075 6.80119L13.9408 2.48119L12.8592 0.798836L6.13924 5.11884L7.22075 6.80119ZM12.6106 2.25396L15.9706 6.57396L17.5493 5.34607L14.1893 1.02607L12.6106 2.25396ZM2.35999 6.96002H18.68V4.96002H2.35999V6.96002ZM18.68 19.36H2.35999V21.36H18.68V19.36ZM2.39999 19.4V6.92002H0.399994V19.4H2.39999ZM2.35999 19.36C2.38209 19.36 2.39999 19.3779 2.39999 19.4H0.399994C0.399994 20.4825 1.27751 21.36 2.35999 21.36V19.36ZM18.64 19.4C18.64 19.3779 18.6579 19.36 18.68 19.36V21.36C19.7625 21.36 20.64 20.4825 20.64 19.4H18.64ZM18.68 6.96002C18.6579 6.96002 18.64 6.94211 18.64 6.92002H20.64C20.64 5.83754 19.7625 4.96002 18.68 4.96002V6.96002ZM2.35999 4.96002C1.27752 4.96002 0.399994 5.83754 0.399994 6.92002H2.39999C2.39999 6.94211 2.38209 6.96002 2.35999 6.96002V4.96002ZM18.64 16.28V19.4H20.64V16.28H18.64ZM18.64 6.92002V9.44002H20.64V6.92002H18.64Z" fill="black"/>
</svg>
