<svg width="60" height="60" viewBox="0 0 60 60" fill="none" xmlns="http://www.w3.org/2000/svg">
<path d="M22.977 6.92843C26.871 3.08687 33.129 3.08687 37.023 6.92843L41.6181 11.4616C42.3327 12.1667 43.1495 12.7601 44.0409 13.2219L49.7721 16.1912C54.629 18.7075 56.5628 24.6592 54.1126 29.5497L51.2212 35.3208C50.7715 36.2183 50.4595 37.1785 50.2958 38.1689L49.2428 44.5373C48.3506 49.934 43.2877 53.6124 37.8794 52.7933L31.4974 51.8268C30.5048 51.6764 29.4952 51.6764 28.5026 51.8268L22.1206 52.7933C16.7123 53.6124 11.6494 49.934 10.7572 44.5373L9.70422 38.1689C9.54046 37.1785 9.22849 36.2183 8.77879 35.3208L5.88741 29.5497C3.43718 24.6592 5.371 18.7075 10.2279 16.1912L15.9591 13.2219C16.8505 12.7601 17.6673 12.1667 18.3819 11.4616L22.977 6.92843Z" fill="#3598EA"/>
<path d="M38.925 26.5467L33.2783 26.0567L31.0733 20.865C30.6767 19.92 29.3233 19.92 28.9267 20.865L26.7217 26.0683L21.0867 26.5467C20.06 26.6283 19.64 27.9117 20.4217 28.5883L24.7033 32.2983L23.42 37.805C23.1867 38.8083 24.2717 39.6017 25.1583 39.065L30 36.1483L34.8417 39.0767C35.7283 39.6133 36.8133 38.82 36.58 37.8167L35.2967 32.2983L39.5783 28.5883C40.36 27.9117 39.9517 26.6283 38.925 26.5467ZM30 33.9667L25.6133 36.615L26.78 31.6217L22.9067 28.2617L28.0167 27.8183L30 23.1167L31.995 27.83L37.105 28.2733L33.2317 31.6333L34.3983 36.6267L30 33.9667Z" fill="white"/>
</svg>
