<svg width="60" height="60" viewBox="0 0 60 60" fill="none" xmlns="http://www.w3.org/2000/svg">
<path d="M22.977 6.92843C26.871 3.08687 33.129 3.08687 37.023 6.92843L41.6181 11.4616C42.3327 12.1667 43.1495 12.7601 44.0409 13.2219L49.7721 16.1912C54.629 18.7075 56.5628 24.6592 54.1126 29.5497L51.2212 35.3208C50.7715 36.2183 50.4595 37.1785 50.2958 38.1689L49.2428 44.5373C48.3506 49.934 43.2877 53.6124 37.8794 52.7933L31.4974 51.8268C30.5048 51.6764 29.4952 51.6764 28.5026 51.8268L22.1206 52.7933C16.7123 53.6124 11.6494 49.934 10.7572 44.5373L9.70422 38.1689C9.54046 37.1785 9.22849 36.2183 8.77879 35.3208L5.88741 29.5497C3.43718 24.6592 5.371 18.7075 10.2279 16.1912L15.9591 13.2219C16.8505 12.7601 17.6673 12.1667 18.3819 11.4616L22.977 6.92843Z" fill="#3598EA"/>
<path d="M41.3283 26.1616C42.7867 24.7033 42.1217 23 41.3283 22.1716L37.8283 18.6716C36.3583 17.2133 34.6667 17.8783 33.8383 18.6716L31.855 20.6666H28.8333C26.6167 20.6666 25.3333 21.8333 24.68 23.175L19.5 28.355V33.0216L18.6717 33.8383C17.2133 35.3083 17.8783 37 18.6717 37.8283L22.1717 41.3283C22.8017 41.9583 23.4783 42.1916 24.12 42.1916C24.9483 42.1916 25.7067 41.7833 26.1617 41.3283L29.3117 38.1666H33.5C35.4833 38.1666 36.4867 36.93 36.8483 35.7166C38.1667 35.3666 38.89 34.3633 39.1817 33.3833C40.99 32.9166 41.6667 31.2016 41.6667 30V26.5H40.9783L41.3283 26.1616ZM39.3333 30C39.3333 30.525 39.1117 31.1666 38.1667 31.1666H37V32.3333C37 32.8583 36.7783 33.5 35.8333 33.5H34.6667V34.6666C34.6667 35.1916 34.445 35.8333 33.5 35.8333H28.355L24.5283 39.66C24.1667 39.9983 23.9567 39.8 23.8283 39.6716L20.34 36.195C20.0017 35.8333 20.2 35.6233 20.3283 35.495L21.8333 33.9783V29.3116L24.1667 26.9783V28.8333C24.1667 30.245 25.1 32.3333 27.6667 32.3333C30.2333 32.3333 31.1667 30.245 31.1667 28.8333H39.3333V30ZM39.6717 24.505L37.6883 26.5H28.8333V28.8333C28.8333 29.3583 28.6117 30 27.6667 30C26.7217 30 26.5 29.3583 26.5 28.8333V25.3333C26.5 24.7966 26.6983 23 28.8333 23H32.8117L35.4717 20.34C35.8333 20.0016 36.0433 20.2 36.1717 20.3283L39.66 23.805C39.9983 24.1666 39.8 24.3766 39.6717 24.505Z" fill="white"/>
</svg>
