<svg width="60" height="60" viewBox="0 0 60 60" fill="none" xmlns="http://www.w3.org/2000/svg">
<path d="M22.977 6.92843C26.871 3.08687 33.129 3.08687 37.023 6.92843L41.6181 11.4616C42.3327 12.1667 43.1495 12.7601 44.0409 13.2219L49.7721 16.1912C54.629 18.7075 56.5628 24.6592 54.1126 29.5497L51.2212 35.3208C50.7715 36.2183 50.4595 37.1785 50.2958 38.1689L49.2428 44.5373C48.3506 49.934 43.2877 53.6124 37.8794 52.7933L31.4974 51.8268C30.5048 51.6764 29.4952 51.6764 28.5026 51.8268L22.1206 52.7933C16.7123 53.6124 11.6494 49.934 10.7572 44.5373L9.70422 38.1689C9.54046 37.1785 9.22849 36.2183 8.77879 35.3208L5.88741 29.5497C3.43718 24.6592 5.371 18.7075 10.2279 16.1912L15.9591 13.2219C16.8505 12.7601 17.6673 12.1667 18.3819 11.4616L22.977 6.92843Z" fill="#3598EA"/>
<path d="M27.4753 18.3729C27.606 18.4172 27.7343 18.4709 27.8592 18.5316L29.356 19.2689C29.5563 19.3675 29.7767 19.4188 30 19.4188C30.2233 19.4188 30.4436 19.3675 30.644 19.2689L32.1408 18.5316C32.9042 18.1561 33.7854 18.0991 34.5908 18.3733C35.3961 18.6474 36.0596 19.2302 36.4353 19.9934L36.5217 20.1824L36.5952 20.3772L37.1318 21.9557C37.2777 22.3851 37.6148 22.7211 38.043 22.8669L39.6227 23.4036C40.0548 23.5506 40.4505 23.7881 40.7835 24.1002C41.1165 24.4124 41.379 24.792 41.5536 25.2137C41.7282 25.6354 41.8108 26.0895 41.7959 26.5457C41.781 27.0019 41.6689 27.4496 41.4672 27.8591L40.731 29.3559C40.6324 29.5562 40.5811 29.7766 40.5811 29.9999C40.5811 30.2232 40.6324 30.4435 40.731 30.6439L41.4672 32.1407C41.6687 32.5501 41.7806 32.9977 41.7954 33.4538C41.8102 33.9098 41.7276 34.3638 41.553 34.7853C41.3784 35.2069 41.116 35.5864 40.7831 35.8985C40.4502 36.2105 40.0546 36.448 39.6227 36.5951L38.043 37.1317C37.8317 37.2038 37.6397 37.3234 37.482 37.4814C37.3242 37.6394 37.2048 37.8315 37.133 38.0429L36.5952 39.6226C36.4481 40.0545 36.2106 40.4501 35.8986 40.783C35.5865 41.1159 35.207 41.3783 34.7854 41.5529C34.3639 41.7275 33.9099 41.8101 33.4539 41.7953C32.9978 41.7805 32.5502 41.6686 32.1408 41.4671L30.644 40.7309C30.4436 40.6323 30.2233 40.581 30 40.581C29.7767 40.581 29.5563 40.6323 29.356 40.7309L27.8592 41.4671C27.4498 41.6686 27.0022 41.7805 26.5461 41.7953C26.0901 41.8101 25.6361 41.7275 25.2145 41.5529C24.793 41.3783 24.4135 41.1159 24.1014 40.783C23.7893 40.4501 23.5519 40.0545 23.4048 39.6226L22.8682 38.0429C22.796 37.8315 22.6761 37.6394 22.518 37.4817C22.3598 37.3239 22.1674 37.2045 21.9558 37.1329L20.3773 36.5951C19.9453 36.4481 19.5495 36.2107 19.2165 35.8987C18.8835 35.5867 18.6209 35.2072 18.4462 34.7857C18.2716 34.3641 18.1888 33.9101 18.2035 33.454C18.2183 32.9979 18.3301 32.5502 18.5317 32.1407L19.269 30.6439C19.3676 30.4435 19.4189 30.2232 19.4189 29.9999C19.4189 29.7766 19.3676 29.5562 19.269 29.3559L18.5317 27.8591C18.3301 27.4496 18.2183 27.0019 18.2035 26.5458C18.1888 26.0897 18.2716 25.6357 18.4462 25.2141C18.6209 24.7925 18.8835 24.4131 19.2165 24.101C19.5495 23.789 19.9453 23.5516 20.3773 23.4047L21.9558 22.8681C22.1675 22.796 22.3597 22.6763 22.5177 22.5181C22.6757 22.3599 22.7952 22.1675 22.867 21.9557L23.4037 20.3772C23.5393 19.9782 23.7523 19.6098 24.0303 19.2931C24.3084 18.9765 24.6461 18.7177 25.0243 18.5315C25.4024 18.3454 25.8134 18.2356 26.234 18.2084C26.6546 18.1811 27.0764 18.237 27.4753 18.3729ZM25.0603 20.9396L24.5237 22.5192C24.3654 22.9845 24.1024 23.4072 23.7548 23.7547C23.4073 24.1023 22.9846 24.3653 22.5193 24.5236L20.9408 25.0602C20.7445 25.1272 20.5647 25.2352 20.4134 25.3771C20.262 25.519 20.1427 25.6915 20.0633 25.8832C19.984 26.0748 19.9464 26.2812 19.953 26.4885C19.9597 26.6959 20.0105 26.8994 20.102 27.0856L20.8393 28.5824C21.0565 29.0234 21.1694 29.5083 21.1694 29.9999C21.1694 30.4914 21.0565 30.9764 20.8393 31.4174L20.102 32.9131C20.0103 33.0992 19.9593 33.3027 19.9526 33.5101C19.9458 33.7175 19.9834 33.924 20.0628 34.1157C20.1422 34.3074 20.2616 34.4799 20.413 34.6218C20.5644 34.7637 20.7444 34.8716 20.9408 34.9384L22.5193 35.4751C22.9846 35.6333 23.4073 35.8963 23.7548 36.2439C24.1024 36.5914 24.3654 37.0141 24.5237 37.4794L25.0603 39.0591C25.1268 39.2557 25.2345 39.436 25.3763 39.5876C25.5182 39.7392 25.6908 39.8588 25.8826 39.9382C26.0744 40.0176 26.281 40.0551 26.4885 40.0482C26.696 40.0412 26.8996 39.99 27.0857 39.8979L28.5825 39.1606C29.0235 38.9434 29.5084 38.8304 30 38.8304C30.4915 38.8304 30.9765 38.9434 31.4175 39.1606L32.9132 39.8979C33.0993 39.9896 33.3028 40.0405 33.5102 40.0473C33.7176 40.0541 33.9241 40.0165 34.1158 39.9371C34.3075 39.8577 34.48 39.7383 34.6219 39.5869C34.7638 39.4355 34.8717 39.2555 34.9385 39.0591L35.4752 37.4794C35.6334 37.0141 35.8964 36.5914 36.244 36.2439C36.5915 35.8963 37.0142 35.6333 37.4795 35.4751L39.0592 34.9384C39.2556 34.8716 39.4356 34.7637 39.587 34.6218C39.7384 34.4799 39.8578 34.3074 39.9372 34.1157C40.0166 33.924 40.0542 33.7175 40.0474 33.5101C40.0406 33.3027 39.9897 33.0992 39.898 32.9131L39.1607 31.4162C38.9437 30.9754 38.8308 30.4906 38.8308 29.9993C38.8308 29.508 38.9437 29.0232 39.1607 28.5824L39.898 27.0856C39.9897 26.8994 40.0406 26.6959 40.0474 26.4885C40.0542 26.2811 40.0166 26.0746 39.9372 25.8829C39.8578 25.6912 39.7384 25.5187 39.587 25.3768C39.4356 25.2349 39.2556 25.127 39.0592 25.0602L37.4795 24.5236C37.0142 24.3653 36.5915 24.1023 36.244 23.7547C35.8964 23.4072 35.6334 22.9845 35.4752 22.5192L34.9385 20.9407L34.9047 20.8521L34.8662 20.7657L34.7938 20.6362C34.6022 20.3301 34.3037 20.1059 33.9563 20.0072C33.6089 19.9085 33.2371 19.9422 32.9132 20.1019L31.4163 20.8392C30.9755 21.0562 30.4907 21.1691 29.9994 21.1691C29.5081 21.1691 29.0233 21.0562 28.5825 20.8392L27.0857 20.1019C26.8996 20.0104 26.6961 19.9596 26.4889 19.9529C26.2816 19.9463 26.0753 19.9839 25.8838 20.0633C25.6922 20.1427 25.5198 20.262 25.378 20.4133C25.2362 20.5646 25.1283 20.7444 25.0615 20.9407L25.0603 20.9396ZM27.725 32.7882L34.0483 26.4649C34.2045 26.3083 34.4141 26.2167 34.635 26.2084C34.856 26.2001 35.0719 26.2757 35.2393 26.4201C35.4067 26.5645 35.5133 26.7669 35.5376 26.9867C35.5619 27.2065 35.5021 27.4273 35.3702 27.6047L35.285 27.7027L28.285 34.7027C28.1267 34.861 27.9138 34.9525 27.6901 34.9586C27.4663 34.9647 27.2488 34.8848 27.0822 34.7354L26.9947 34.6444L24.078 31.1444C23.937 30.9747 23.8652 30.758 23.8772 30.5377C23.8892 30.3173 23.9839 30.1097 24.1425 29.9562C24.3011 29.8028 24.5118 29.715 24.7324 29.7103C24.953 29.7056 25.1672 29.7845 25.3322 29.9311L25.422 30.0244L27.725 32.7882Z" fill="white"/>
</svg>
