<svg width="60" height="60" viewBox="0 0 60 60" fill="none" xmlns="http://www.w3.org/2000/svg">
<path d="M22.977 6.92843C26.871 3.08687 33.129 3.08687 37.023 6.92843L41.6181 11.4616C42.3327 12.1667 43.1495 12.7601 44.0409 13.2219L49.7721 16.1912C54.629 18.7075 56.5628 24.6592 54.1126 29.5497L51.2212 35.3208C50.7715 36.2183 50.4595 37.1785 50.2958 38.1689L49.2428 44.5373C48.3506 49.934 43.2877 53.6124 37.8794 52.7933L31.4974 51.8268C30.5048 51.6764 29.4952 51.6764 28.5026 51.8268L22.1206 52.7933C16.7123 53.6124 11.6494 49.934 10.7572 44.5373L9.70422 38.1689C9.54046 37.1785 9.22849 36.2183 8.77879 35.3208L5.88741 29.5497C3.43718 24.6592 5.371 18.7075 10.2279 16.1912L15.9591 13.2219C16.8505 12.7601 17.6673 12.1667 18.3819 11.4616L22.977 6.92843Z" fill="#3598EA"/>
<path d="M29.9883 18.3333C23.5483 18.3333 18.3333 23.5599 18.3333 29.9999C18.3333 36.4399 23.5483 41.6666 29.9883 41.6666C36.44 41.6666 41.6667 36.4399 41.6667 29.9999C41.6667 23.5599 36.44 18.3333 29.9883 18.3333ZM30 39.3333C24.8433 39.3333 20.6667 35.1566 20.6667 29.9999C20.6667 24.8433 24.8433 20.6666 30 20.6666C35.1567 20.6666 39.3333 24.8433 39.3333 29.9999C39.3333 35.1566 35.1567 39.3333 30 39.3333ZM30.5833 24.1666H28.8333V31.1666L34.9583 34.8416L35.8333 33.4066L30.5833 30.2916V24.1666Z" fill="white"/>
</svg>
