<svg width="52" height="49" viewBox="0 0 52 49" fill="none" xmlns="http://www.w3.org/2000/svg">
<path d="M18.977 2.92843C22.871 -0.913133 29.129 -0.913131 33.023 2.92843L37.6181 7.46164C38.3327 8.16668 39.1495 8.76009 40.0409 9.22191L45.7721 12.1912C50.629 14.7075 52.5628 20.6592 50.1126 25.5497L47.2212 31.3208C46.7715 32.2183 46.4595 33.1785 46.2958 34.1689L45.2428 40.5373C44.3506 45.934 39.2877 49.6124 33.8794 48.7933L27.4974 47.8268C26.5048 47.6764 25.4952 47.6764 24.5026 47.8268L18.1206 48.7933C12.7123 49.6124 7.64945 45.934 6.75716 40.5373L5.70422 34.1689C5.54046 33.1785 5.22849 32.2183 4.77879 31.3208L1.88741 25.5497C-0.562823 20.6592 1.371 14.7075 6.22786 12.1912L11.9591 9.2219C12.8505 8.76009 13.6673 8.16668 14.3819 7.46164L18.977 2.92843Z" fill="#3598EA"/>
</svg>
