<svg width="25" height="25" viewBox="0 0 25 25" fill="none" xmlns="http://www.w3.org/2000/svg">
<path fillRule="evenodd" clip-rule="evenodd" d="M4.89933 0.711316C5.18539 0.587815 5.49866 0.540794 5.80839 0.574868C6.11812 0.608942 6.41367 0.72294 6.66604 0.905675C8.21022 2.03149 9.37907 3.61326 10.3743 5.06668L11.1543 6.21328C11.3794 6.54219 11.4915 6.93528 11.4739 7.33341C11.4563 7.73154 11.3098 8.11317 11.0565 8.42091L10.9379 8.5517L9.28003 10.2093L9.45487 10.5809C9.88279 11.4475 10.6213 12.6956 11.7326 13.808C12.5001 14.5636 13.3652 15.2132 14.3051 15.7393L14.7538 15.9801L15.1536 16.1782L15.3321 16.2601L16.9888 14.6025C17.2932 14.2985 17.6948 14.1111 18.1234 14.0729C18.5519 14.0347 18.9803 14.1481 19.3338 14.3935L20.5735 15.2528C21.982 16.243 23.4528 17.3712 24.596 18.8356C24.7936 19.0898 24.9193 19.3923 24.96 19.7116C25.0006 20.031 24.9547 20.3554 24.8271 20.6509C23.8037 23.0382 21.2142 25.071 18.5207 24.9708L18.1539 24.9512L17.8691 24.9268L17.5536 24.8901L17.21 24.8437L16.8371 24.7813L16.4386 24.7031L16.0155 24.609L15.568 24.4941L15.0973 24.3596L14.6058 24.2007C12.3488 23.4355 9.48421 21.9319 6.54499 18.9933C3.607 16.0559 2.10316 13.1919 1.33779 10.9354L1.17884 10.444L1.04435 9.97333L0.929426 9.52594L0.834061 9.103C0.806516 8.97053 0.780838 8.83769 0.757034 8.7045L0.695903 8.33167L0.646997 7.98818L0.611541 7.6728L0.587088 7.38799L0.567526 7.02127C0.468492 4.33691 2.52252 1.72956 4.89933 0.711316ZM5.53143 3.11575C4.22076 3.80029 2.95167 5.36494 3.00913 6.93082L3.03358 7.33176L3.06048 7.58235L3.09594 7.8635L3.14484 8.17276L3.2072 8.51136L3.28667 8.87563L3.38448 9.2668L3.50185 9.68118L3.64123 10.1188C3.69258 10.2679 3.74638 10.4207 3.80507 10.5772L3.99335 11.0564L4.20854 11.5539C4.97635 13.2432 6.22833 15.221 8.2738 17.2649C10.318 19.3087 12.2963 20.5616 13.986 21.3293L14.4836 21.5444L14.9628 21.7327C15.1193 21.7914 15.2722 21.8451 15.4213 21.8965L15.859 22.0358L16.2747 22.1532L16.6648 22.251L17.0291 22.3304L17.3678 22.3928L17.6783 22.4417L17.9595 22.4783L18.2089 22.5028L18.61 22.5272C20.1554 22.5847 21.7326 21.3232 22.4148 20.0299C21.5443 19.0092 20.4635 18.1719 19.2714 17.3284L18.3569 16.6916L18.1246 16.9348L17.6282 17.4763L17.3653 17.7526C16.6489 18.4824 15.8126 19.1021 14.81 18.6975L14.5337 18.5814L14.1963 18.4298L14.008 18.3406L13.5947 18.134L13.1411 17.8895C11.9932 17.2508 10.9374 16.4592 10.0026 15.5364C9.07962 14.6018 8.28786 13.5462 7.64903 12.3985L7.40451 11.9463L7.19666 11.5319L6.95702 11.0063L6.84087 10.7275C6.46063 9.78753 6.98392 8.9942 7.6527 8.30722L7.92657 8.0383L8.60758 7.41121L8.85211 7.17896L8.2738 6.33185C7.41429 5.08501 6.57434 3.96164 5.53143 3.11575Z" fill="white"/>
</svg>
