<svg width="34" height="35" viewBox="0 0 34 35" fill="none" xmlns="http://www.w3.org/2000/svg">
<g id="Icon">
<path id="Vector" fillRule="evenodd" clip-rule="evenodd" d="M11.7098 10.0177C11.8937 9.93835 12.0951 9.90812 12.2942 9.93003C12.4933 9.95193 12.6833 10.0252 12.8455 10.1427C13.8382 10.8664 14.5896 11.8833 15.2294 12.8176L15.7309 13.5547C15.8755 13.7662 15.9476 14.0189 15.9363 14.2748C15.925 14.5307 15.8308 14.7761 15.668 14.9739L15.5917 15.058L14.526 16.1236L14.6384 16.3624C14.9134 16.9196 15.3882 17.7219 16.1026 18.437C16.596 18.9228 17.1522 19.3404 17.7563 19.6786L18.0448 19.8334L18.3018 19.9607L18.4166 20.0134L19.4816 18.9478C19.6773 18.7524 19.9354 18.6319 20.2109 18.6073C20.4865 18.5827 20.7619 18.6557 20.9891 18.8134L21.7861 19.3659C22.6915 20.0024 23.637 20.7277 24.3719 21.6691C24.499 21.8325 24.5798 22.027 24.6059 22.2322C24.632 22.4375 24.6025 22.6461 24.5205 22.836C23.8626 24.3707 22.1979 25.6776 20.4664 25.6131L20.2306 25.6005L20.0475 25.5848L19.8447 25.5613L19.6238 25.5314L19.3841 25.4913L19.1279 25.441L18.8559 25.3805L18.5683 25.3066L18.2657 25.2202L17.9497 25.1181C16.4988 24.6261 14.6572 23.6596 12.7677 21.7705C10.879 19.8821 9.91225 18.041 9.42023 16.5903L9.31805 16.2744L9.23159 15.9719L9.15771 15.6843L9.09641 15.4124C9.0787 15.3272 9.06219 15.2418 9.04689 15.1562L9.00759 14.9165L8.97615 14.6957L8.95336 14.493L8.93764 14.3099L8.92506 14.0741C8.8614 12.3485 10.1818 10.6723 11.7098 10.0177ZM12.1161 11.5634C11.2736 12.0035 10.4577 13.0094 10.4947 14.016L10.5104 14.2737L10.5277 14.4348L10.5505 14.6156L10.5819 14.8144L10.622 15.0321L10.6731 15.2662L10.736 15.5177L10.8114 15.7841L10.901 16.0654C10.934 16.1613 10.9686 16.2595 11.0063 16.3601L11.1274 16.6681L11.2657 16.988C11.7593 18.074 12.5642 19.3454 13.8791 20.6593C15.1933 21.9732 16.465 22.7787 17.5512 23.2722L17.8711 23.4105L18.1792 23.5315C18.2798 23.5692 18.378 23.6038 18.4739 23.6368L18.7553 23.7264L19.0226 23.8018L19.2733 23.8647L19.5075 23.9157L19.7252 23.9558L19.9249 23.9873L20.1056 24.0108L20.266 24.0265L20.5238 24.0423C21.5173 24.0792 22.5312 23.2682 22.9697 22.4368C22.4101 21.7807 21.7153 21.2424 20.949 20.7002L20.3611 20.2908L20.2117 20.4471L19.8926 20.7953L19.7236 20.9729C19.2631 21.442 18.7255 21.8404 18.0809 21.5803L17.9033 21.5056L17.6864 21.4082L17.5653 21.3508L17.2997 21.218L17.0081 21.0609C16.2701 20.6503 15.5914 20.1414 14.9905 19.5482C14.3971 18.9473 13.8881 18.2687 13.4775 17.531L13.3203 17.2402L13.1866 16.9738L13.0326 16.6359L12.9579 16.4567C12.7135 15.8525 13.0499 15.3425 13.4798 14.9008L13.6559 14.7279L14.0937 14.3248L14.2509 14.1755L13.8791 13.6309C13.3266 12.8294 12.7866 12.1072 12.1161 11.5634Z" fill="white"/>
<path id="Union" fillRule="evenodd" clip-rule="evenodd" d="M16.3018 0.333252L21.5325 3.35324L16.3018 6.37322V4.35148C9.10334 4.59766 3.34333 10.5107 3.34333 17.7691C3.34333 25.1681 9.32857 31.1691 16.7215 31.1947H17.3794C18.0053 31.1947 18.5127 31.7021 18.5127 32.328C18.5127 32.954 18.0053 33.4614 17.3794 33.4614H16.769V33.4615C16.7521 33.4615 16.7352 33.4614 16.7183 33.4614H16.3331C16.2794 33.4614 16.2266 33.4576 16.1749 33.4504C7.78352 33.1381 1.07666 26.2368 1.07666 17.7691C1.07666 9.2588 7.85126 2.33075 16.3018 2.08366V0.333252Z" fill="white"/>
</g>
</svg>
