<svg width="25" height="26" viewBox="0 0 25 26" fill="none" xmlns="http://www.w3.org/2000/svg">
<path d="M21.4171 4.0723C20.2925 2.93633 18.953 2.03566 17.4766 1.42281C16.0003 0.809953 14.4167 0.49719 12.8183 0.502759C6.12079 0.502759 0.662219 5.96133 0.662219 12.6588C0.662219 14.8054 1.22648 16.8907 2.28139 18.7307L0.564087 25.0357L7.00398 23.3429C8.78261 24.312 10.782 24.8271 12.8183 24.8271C19.5158 24.8271 24.9743 19.3686 24.9743 12.6711C24.9743 9.42047 23.7109 6.36613 21.4171 4.0723ZM12.8183 22.7664C11.0028 22.7664 9.22421 22.2757 7.66637 21.3557L7.29837 21.1349L3.47124 22.1408L4.48935 18.4118L4.24403 18.0315C3.23541 16.4209 2.69985 14.5592 2.69845 12.6588C2.69845 7.08985 7.23704 2.55126 12.806 2.55126C15.5046 2.55126 18.0438 3.60617 19.9451 5.51974C20.8865 6.45685 21.6326 7.5715 22.14 8.79909C22.6475 10.0267 22.9063 11.3428 22.9013 12.6711C22.9258 18.2401 18.3873 22.7664 12.8183 22.7664ZM18.3627 15.2102C18.0561 15.063 16.5595 14.3271 16.2897 14.2167C16.0076 14.1185 15.8113 14.0695 15.6028 14.3639C15.3942 14.6705 14.8177 15.3574 14.646 15.5537C14.4743 15.7622 14.2903 15.7868 13.9836 15.6273C13.6769 15.4801 12.6956 15.1489 11.5426 14.1185C10.6348 13.3089 10.0338 12.3154 9.8498 12.0087C9.67807 11.702 9.82526 11.5426 9.98473 11.3831C10.1197 11.2482 10.2914 11.0274 10.4386 10.8556C10.5858 10.6839 10.6471 10.549 10.7452 10.3527C10.8434 10.1442 10.7943 9.97247 10.7207 9.82527C10.6471 9.67807 10.0338 8.18156 9.78846 7.56824C9.54313 6.97945 9.28554 7.05305 9.10154 7.04078H8.51275C8.30422 7.04078 7.98529 7.11438 7.70317 7.42104C7.4333 7.7277 6.64825 8.46369 6.64825 9.9602C6.64825 11.4567 7.73997 12.9041 7.88716 13.1004C8.03436 13.3089 10.0338 16.3756 13.0759 17.6881C13.7996 18.007 14.3639 18.191 14.8054 18.3259C15.5292 18.559 16.1916 18.5222 16.719 18.4486C17.3078 18.3627 18.5222 17.7126 18.7675 17.0011C19.0251 16.2897 19.0251 15.6886 18.9392 15.5537C18.8534 15.4188 18.6694 15.3574 18.3627 15.2102Z" fill="white"/>
</svg>
