<svg width="20" height="18" viewBox="0 0 20 18" fill="none" xmlns="http://www.w3.org/2000/svg">
<path d="M1.43899 17.353L19.375 9.66469C19.5604 9.5857 19.7185 9.45395 19.8296 9.28582C19.9408 9.11769 20 8.9206 20 8.71906C20 8.51753 19.9408 8.32044 19.8296 8.15231C19.7185 7.98418 19.5604 7.85243 19.375 7.77344L1.43899 0.0851197C1.28368 0.0173787 1.11396 -0.0106319 0.945117 0.00361439C0.77628 0.0178607 0.613645 0.0739156 0.471884 0.166723C0.330124 0.25953 0.213699 0.386169 0.133111 0.535215C0.0525241 0.684262 0.0103104 0.851026 0.0102785 1.02046L0 5.75885C0 6.27278 0.380305 6.71476 0.89423 6.77643L15.4178 8.71906L0.89423 10.6514C0.380305 10.7234 0 11.1653 0 11.6793L0.0102785 16.4177C0.0102785 17.1474 0.760609 17.6511 1.43899 17.353Z" fill="white"/>
</svg>
