<svg width="22" height="22" viewBox="0 0 22 22" fill="none" xmlns="http://www.w3.org/2000/svg">
<path d="M14.5 11C14.5 11.6922 14.2947 12.3689 13.9101 12.9445C13.5256 13.5201 12.9789 13.9687 12.3394 14.2336C11.6999 14.4985 10.9961 14.5678 10.3172 14.4327C9.63825 14.2977 9.01461 13.9644 8.52513 13.4749C8.03564 12.9854 7.7023 12.3617 7.56725 11.6828C7.4322 11.0039 7.50151 10.3001 7.76642 9.66061C8.03133 9.02107 8.47993 8.47444 9.0555 8.08986C9.63108 7.70527 10.3078 7.5 11 7.5C11.9274 7.50288 12.8159 7.87256 13.4717 8.52831C14.1274 9.18407 14.4971 10.0726 14.5 11ZM21.9375 6.1875V15.8125C21.9375 17.437 21.2922 18.9949 20.1435 20.1435C18.9949 21.2922 17.437 21.9375 15.8125 21.9375H6.1875C4.56305 21.9375 3.00513 21.2922 1.85647 20.1435C0.707811 18.9949 0.0625 17.437 0.0625 15.8125V6.1875C0.0625 4.56305 0.707811 3.00513 1.85647 1.85647C3.00513 0.707811 4.56305 0.0625 6.1875 0.0625H15.8125C17.437 0.0625 18.9949 0.707811 20.1435 1.85647C21.2922 3.00513 21.9375 4.56305 21.9375 6.1875ZM16.25 11C16.25 9.96165 15.9421 8.94661 15.3652 8.08326C14.7883 7.2199 13.9684 6.54699 13.0091 6.14963C12.0498 5.75227 10.9942 5.64831 9.97578 5.85088C8.95738 6.05345 8.02192 6.55346 7.28769 7.28769C6.55346 8.02192 6.05345 8.95738 5.85088 9.97578C5.64831 10.9942 5.75227 12.0498 6.14963 13.0091C6.54699 13.9684 7.2199 14.7883 8.08326 15.3652C8.94661 15.9421 9.96165 16.25 11 16.25C12.3924 16.25 13.7277 15.6969 14.7123 14.7123C15.6969 13.7277 16.25 12.3924 16.25 11ZM18 5.3125C18 5.05291 17.923 4.79915 17.7788 4.58331C17.6346 4.36748 17.4296 4.19925 17.1898 4.09991C16.9499 4.00057 16.686 3.97458 16.4314 4.02522C16.1768 4.07586 15.943 4.20087 15.7594 4.38442C15.5759 4.56798 15.4509 4.80184 15.4002 5.05644C15.3496 5.31104 15.3756 5.57494 15.4749 5.81477C15.5742 6.0546 15.7425 6.25958 15.9583 6.4038C16.1742 6.54802 16.4279 6.625 16.6875 6.625C17.0356 6.625 17.3694 6.48672 17.6156 6.24058C17.8617 5.99444 18 5.6606 18 5.3125Z" fill="url(#paint0_linear_2078_12930)"/>
<defs>
<linearGradient id="paint0_linear_2078_12930" x1="4.5" y1="-7.8891e-08" x2="14" y2="20" gradientUnits="userSpaceOnUse">
<stop stop-color="#515BD4"/>
<stop offset="0.271711" stop-color="#8134AF"/>
<stop offset="0.510235" stop-color="#DD2A7B"/>
<stop offset="0.979167" stop-color="#F58529"/>
</linearGradient>
</defs>
</svg>
