<svg width="235" height="60" viewBox="0 0 235 60" fill="none" xmlns="http://www.w3.org/2000/svg">
<g clip-path="url(#clip0_1_30)">
<path d="M15.65 35.1148V21.072L27.4435 27.727L51.3362 13.9452C46.623 5.62184 37.6923 0 27.4435 0C12.2864 0 0 12.2848 0 27.4397C0 37.6845 5.61997 46.6141 13.9418 51.3266L13.9471 51.3372L27.4435 59.1018L40.9372 51.3372L40.9345 51.3345C49.2643 46.6246 54.8896 37.6924 54.8896 27.4397C54.8896 26.8836 54.8685 26.3328 54.8342 25.7846L27.4435 41.7381L15.65 35.1148Z" fill="#19B5FE"/>
<path d="M69.319 38.9417C67.0152 36.6382 65.7367 33.5676 65.7367 30.3442C65.7367 27.1208 67.0152 24.1004 69.319 21.7467C71.5702 19.4432 74.6411 18.215 77.9177 18.215C81.1942 18.215 84.2652 19.4432 86.5163 21.7467C87.0277 22.2581 87.4363 22.7193 87.7447 23.1805L81.2443 27.8878C80.4772 26.8125 79.1961 26.1483 77.9177 26.1483C75.6665 26.1483 73.7712 28.0407 73.7712 30.3442C73.7712 32.6478 75.6639 34.5402 77.9177 34.5402C79.2489 34.5402 80.4245 33.876 81.2443 32.7479L87.692 37.558C87.3335 38.0192 86.975 38.4805 86.5137 38.9391C84.2626 41.2426 81.1916 42.4708 77.915 42.4708C74.6385 42.4708 71.5702 41.2453 69.319 38.9417Z" fill="#34495E"/>
<path d="M107.014 19.7015V18.6261H115.151V42.0623H107.014V40.987C106.041 41.9595 104.352 42.4708 102.97 42.4708C99.6937 42.4708 96.6755 41.2426 94.3216 38.9918C92.0704 36.6382 90.7893 33.6177 90.7893 30.3442C90.7893 27.1208 92.0678 24.0503 94.3216 21.7467C96.6755 19.4432 99.7465 18.215 102.97 18.215C104.352 18.2176 106.041 18.7289 107.014 19.7015ZM107.014 30.3442C107.014 28.0934 105.221 26.1983 102.97 26.1983C100.666 26.1983 98.8766 28.0907 98.8766 30.3442C98.8766 32.5977 100.669 34.4901 102.97 34.4901C105.221 34.4901 107.014 32.5951 107.014 30.3442Z" fill="#34495E"/>
<path d="M124.377 51.121C123.61 50.6598 121.921 49.1258 120.539 47.7948L126.323 42.6263C127.96 44.0074 129.752 44.9299 130.878 45.0327C132.926 45.0327 134.46 43.2932 134.869 41.6037L134.919 41.4508L134.766 41.5009C134.613 41.551 134.46 41.6037 134.305 41.6538C133.179 42.0122 132.053 42.4208 130.875 42.4208C129.238 42.4208 127.701 42.1124 126.217 41.5009C124.733 40.9369 123.402 40.0671 122.226 38.9417C121.101 37.7636 120.231 36.4352 119.667 34.9513C119.053 33.5175 118.747 31.9309 118.747 30.2941C118.747 27.1208 119.975 24.0503 122.226 21.7494C124.58 19.4458 127.651 18.2176 130.875 18.2176C132.256 18.2176 133.638 18.7289 134.866 19.6514L135.019 19.7542V18.6288H143.003V40.7339C143.003 42.3206 142.698 43.9073 142.083 45.3911C141.469 46.875 140.549 48.206 139.421 49.3314C138.295 50.4568 136.964 51.3266 135.48 51.9407C134.046 52.5548 132.459 52.8632 130.875 52.8632C128.574 52.8606 126.323 52.2465 124.377 51.121ZM126.681 30.2941C126.681 32.6478 128.574 34.5929 130.878 34.5929C133.182 34.5929 135.024 32.6478 135.024 30.2941C135.024 27.9405 133.182 26.0455 130.878 26.0455C128.574 26.0455 126.681 27.9379 126.681 30.2941Z" fill="#34495E"/>
<path d="M146.533 10.8483C146.533 8.34184 148.528 6.24387 151.138 6.24387C153.645 6.24387 155.743 8.34184 155.743 10.8483C155.743 13.3548 153.645 15.4528 151.138 15.4528C148.528 15.4528 146.533 13.3548 146.533 10.8483Z" fill="#19B5FE"/>
<path d="M155.184 18.6262H147.097V42.0624H155.184V18.6262Z" fill="#34495E"/>
<path d="M166.727 19.9571C169.081 18.7289 171.794 18.2176 174.251 18.2176L172.255 26.3038C169.237 26.3038 166.727 27.8377 166.727 29.7327V42.0649H158.64V18.6261H166.727V19.9571Z" fill="#34495E"/>
<path d="M185.817 37.7636C185.817 40.4256 183.719 42.4708 181.16 42.4708C178.6 42.4708 176.452 40.4229 176.452 37.7636C176.452 35.2044 178.6 33.1064 181.16 33.1064C183.719 33.1064 185.817 35.2044 185.817 37.7636Z" fill="#34495E"/>
<path d="M204.602 19.7015V18.6261H212.739V42.0623H204.602V40.987C203.629 41.9595 201.939 42.4708 200.558 42.4708C197.281 42.4708 194.263 41.2426 191.909 38.9918C189.658 36.6382 188.377 33.6177 188.377 30.3442C188.377 27.1208 189.655 24.0503 191.909 21.7467C194.263 19.4432 197.334 18.215 200.558 18.215C201.939 18.2176 203.629 18.7289 204.602 19.7015ZM204.602 30.3442C204.602 28.0934 202.809 26.1983 200.558 26.1983C198.254 26.1983 196.464 28.0907 196.464 30.3442C196.464 32.5977 198.257 34.4901 200.558 34.4901C202.809 34.4901 204.602 32.5951 204.602 30.3442Z" fill="#34495E"/>
<path d="M235 18.6262V25.1257L226.657 34.9514H235V42.065H215.96V35.5655L224.456 25.7398H215.91V18.6262H235Z" fill="#34495E"/>
</g>
<defs>
<clipPath id="clip0_1_30">
<rect width="235" height="59.1018" fill="white"/>
</clipPath>
</defs>
</svg>
